<svg xmlns="http://www.w3.org/2000/svg" xmlns:xlink="http://www.w3.org/1999/xlink" width="353.823" height="282.794" viewBox="0 0 353.823 282.794">
  <defs>
    <linearGradient id="linear-gradient" x1="0.529" y1="-0.832" x2="0.512" y2="1.217" gradientUnits="objectBoundingBox">
      <stop offset="0" stop-color="#fbd9d3"/>
      <stop offset="1" stop-color="#f5fcff"/>
    </linearGradient>
    <linearGradient id="linear-gradient-2" x1="0.617" y1="0.083" x2="0.494" y2="0.552" gradientUnits="objectBoundingBox">
      <stop offset="0" stop-color="#7f1333"/>
      <stop offset="0.9" stop-color="#320003"/>
    </linearGradient>
    <linearGradient id="linear-gradient-3" x1="1.563" y1="0.446" x2="-1.876" y2="0.647" xlink:href="#linear-gradient-2"/>
    <linearGradient id="linear-gradient-4" x1="0.104" y1="0.27" x2="1.187" y2="0.8" gradientUnits="objectBoundingBox">
      <stop offset="0" stop-color="#f7a3a0"/>
      <stop offset="0.296" stop-color="#f69291"/>
      <stop offset="1" stop-color="#f26b6d"/>
    </linearGradient>
    <linearGradient id="linear-gradient-5" x1="2.449" y1="0.219" x2="-0.296" y2="0.723" xlink:href="#linear-gradient-4"/>
    <linearGradient id="linear-gradient-6" x1="0.879" y1="0.315" x2="0.011" y2="0.815" xlink:href="#linear-gradient-4"/>
    <linearGradient id="linear-gradient-7" x1="0.797" y1="0.883" x2="0.252" y2="0.374" gradientUnits="objectBoundingBox">
      <stop offset="0.101" stop-color="#283996"/>
      <stop offset="0.695" stop-color="#4279bd"/>
    </linearGradient>
    <linearGradient id="linear-gradient-8" x1="0.306" y1="0.893" x2="0.834" y2="0.253" xlink:href="#linear-gradient-7"/>
    <linearGradient id="linear-gradient-9" x1="0.453" y1="0.505" x2="-1.316" y2="1.418" gradientUnits="objectBoundingBox">
      <stop offset="0" stop-color="#7f1333"/>
      <stop offset="0.818" stop-color="#4d101e"/>
    </linearGradient>
    <linearGradient id="linear-gradient-10" x1="0.502" y1="1.157" x2="0.49" y2="0.012" xlink:href="#linear-gradient-7"/>
    <linearGradient id="linear-gradient-11" x1="0.498" y1="0.717" x2="0.547" y2="1.313" xlink:href="#linear-gradient-4"/>
    <linearGradient id="linear-gradient-12" x1="1.123" y1="0.219" x2="-0.897" y2="1.122" xlink:href="#linear-gradient-4"/>
    <linearGradient id="linear-gradient-13" x1="0.605" y1="0.284" x2="0.268" y2="0.993" xlink:href="#linear-gradient-2"/>
    <linearGradient id="linear-gradient-14" x1="0.572" y1="-1.121" x2="0.507" y2="0.67" xlink:href="#linear-gradient-4"/>
    <linearGradient id="linear-gradient-15" x1="0.306" y1="0.009" x2="0.462" y2="0.512" xlink:href="#linear-gradient-4"/>
    <linearGradient id="linear-gradient-16" x1="0.608" y1="0.912" x2="0.641" y2="1.056" xlink:href="#linear-gradient-4"/>
    <linearGradient id="linear-gradient-17" x1="0.487" y1="0.808" x2="0.542" y2="-0.29" gradientUnits="objectBoundingBox">
      <stop offset="0.101" stop-color="#4d101e"/>
      <stop offset="0.695" stop-color="#c31f44"/>
    </linearGradient>
    <linearGradient id="linear-gradient-18" x1="0.495" y1="1.098" x2="0.508" y2="-0.407" xlink:href="#linear-gradient-17"/>
    <linearGradient id="linear-gradient-19" x1="0.5" y1="1.005" x2="0.506" y2="0.001" xlink:href="#linear-gradient-4"/>
    <linearGradient id="linear-gradient-20" x1="0.83" y1="0.341" x2="1.635" y2="0.07" xlink:href="#linear-gradient-4"/>
    <linearGradient id="linear-gradient-21" x1="1.161" y1="0.93" x2="0.028" y2="0.059" xlink:href="#linear-gradient-4"/>
    <linearGradient id="linear-gradient-22" x1="-0.009" y1="1.194" x2="0.967" y2="0.088" gradientUnits="objectBoundingBox">
      <stop offset="0.101" stop-color="#a31c37"/>
      <stop offset="0.695" stop-color="#f2673a"/>
    </linearGradient>
    <linearGradient id="linear-gradient-23" x1="0.651" y1="0.814" x2="0.281" y2="0.312" xlink:href="#linear-gradient-22"/>
    <linearGradient id="linear-gradient-24" x1="0.483" y1="0.999" x2="0.521" y2="-0.018" xlink:href="#linear-gradient-22"/>
    <linearGradient id="linear-gradient-25" x1="0.567" y1="-0.392" x2="0.071" y2="7.589" gradientUnits="objectBoundingBox">
      <stop offset="0" stop-color="#ffca3e"/>
      <stop offset="0.9" stop-color="#f2673a"/>
    </linearGradient>
    <linearGradient id="linear-gradient-26" x1="0.451" y1="-0.09" x2="0.646" y2="0.51" xlink:href="#linear-gradient-25"/>
    <linearGradient id="linear-gradient-27" x1="0.699" y1="-0.285" x2="-0.096" y2="1.875" xlink:href="#linear-gradient-25"/>
    <linearGradient id="linear-gradient-28" x1="0.54" y1="0.328" x2="0.414" y2="1.838" xlink:href="#linear-gradient-4"/>
    <linearGradient id="linear-gradient-29" x1="0.306" y1="0.809" x2="0.14" y2="1.107" xlink:href="#linear-gradient-4"/>
    <linearGradient id="linear-gradient-30" x1="-0.169" y1="-0.093" x2="1.015" y2="0.795" xlink:href="#linear-gradient-4"/>
    <linearGradient id="linear-gradient-31" x1="0.493" y1="2.024" x2="0.504" y2="-0.476" xlink:href="#linear-gradient-17"/>
    <linearGradient id="linear-gradient-32" x1="0.307" y1="0.018" x2="0.568" y2="1.008" xlink:href="#linear-gradient-4"/>
    <linearGradient id="linear-gradient-33" x1="0.892" y1="0.711" x2="-0.593" y2="-0.02" xlink:href="#linear-gradient-4"/>
    <linearGradient id="linear-gradient-34" x1="0.271" y1="-1.597" x2="0.503" y2="0.525" xlink:href="#linear-gradient-4"/>
    <linearGradient id="linear-gradient-35" x1="0.503" y1="1.422" x2="0.494" y2="-2.678" xlink:href="#linear-gradient-22"/>
    <linearGradient id="linear-gradient-36" x1="0.503" y1="1.788" x2="0.494" y2="-3.382" xlink:href="#linear-gradient-22"/>
    <linearGradient id="linear-gradient-37" x1="0.519" y1="-0.545" x2="0.407" y2="2.671" xlink:href="#linear-gradient-25"/>
    <linearGradient id="linear-gradient-38" x1="0.5" x2="0.5" y2="1" gradientUnits="objectBoundingBox">
      <stop offset="0" stop-color="#e21a1a"/>
      <stop offset="1" stop-color="#f24f4f"/>
    </linearGradient>
  </defs>
  <g id="welcome" transform="translate(-13.119 -192.098)">
    <path id="Path_514" data-name="Path 514" d="M-2568.049,354.137c4.1,9.559,10.628,17.6,15.654,26.535,14.524,25.826-.587,56.047,6.041,83.888,5.776,24.258,29.8,30.76,47.354,31.745,29.586,1.659,59.139-.827,87.664-11.387,19.794-7.328,39.614-16.923,60.478-17.5,21.328-.594,41.391,10.675,62,16,22.626,5.852,49.686-.5,55.141-33.755,3.38-20.6-5.718-39.571-6.569-59.853-1.127-26.851,19.212-41.586,21.844-66.688,1.659-15.827-4.541-29.968-12.63-41.419-8.535-12.082-20.013-22.757-33.181-23.749-13.765-1.037-26.049,8.475-38.913,13.016-36.152,12.76-56.673-29.8-89.944-35.734-15-2.678-33.444-1.406-47.068,7.787-12.668,8.548-18.815,27.536-33.025,33.111-15.039,5.9-28.8-5.893-43.093-9.661-14.791-3.9-28.78,3.022-38.038,18.2-8.975,14.717-18.688,34.1-17.574,53.536A46.536,46.536,0,0,0-2568.049,354.137Z" transform="translate(2585.119 -41.902)" opacity="0.5" fill="url(#linear-gradient)" style="mix-blend-mode: multiply;isolation: isolate"/>
    <ellipse id="Ellipse_10" data-name="Ellipse 10" cx="93.852" cy="6.299" rx="93.852" ry="6.299" transform="translate(101.168 462.294)" fill="#ebc1c5" opacity="0.28" style="mix-blend-mode: multiply;isolation: isolate"/>
    <g id="Group_12808" data-name="Group 12808" transform="translate(196.261 243.598)">
      <path id="Path_421" data-name="Path 421" d="M122.689,918.807l-2.511,10.8-5.414-.51q1.288-6.4,2.577-12.807Z" transform="translate(-90.809 -728.978)" fill="#2b2f83"/>
      <path id="Path_422" data-name="Path 422" d="M109.67,927.213s-.84,6.514-1.487,7.519-2.127,1.517-2.654,3.465a25.591,25.591,0,0,0-.669,3.049,8.6,8.6,0,0,0,5.99,4.747,8.362,8.362,0,0,0,8.121-2.926c.008-.265.024-.667.046-1.158.027-.608.061-1.276.091-1.511a15.518,15.518,0,0,0-.646-2.739,8,8,0,0,0-.784-1.541c-.479-.7,1-7.742,1-7.742Z" transform="translate(-87.876 -732.21)" fill="#1b0c36"/>
      <path id="Path_423" data-name="Path 423" d="M135.788,806.322c-.172,6.154-.538,12.666-1.163,19.494-.788,8.613-1.9,16.021-2.615,20.78-.63,4.193-.882,5.5-1.147,8.358-.334,3.6-.232,4.741-.616,7.319a43.418,43.418,0,0,1-2.188,8.276,165.5,165.5,0,0,1-7.046,16.964l-11.834-4.335a53.2,53.2,0,0,1,8.619-25.214q-1.053-13.4-1.573-27.839-.4-11.481-.377-22.333a14.886,14.886,0,0,1,11.32-4.959A14.265,14.265,0,0,1,135.788,806.322Z" transform="translate(-89.156 -695.38)" fill="url(#linear-gradient-2)"/>
      <path id="Path_424" data-name="Path 424" d="M103.934,936.838c.377,4.395,1.47,8.79,1.846,13.184l8.071-.147c-.308-4.121.308-8.711,0-12.832C110.962,936.821,106.824,937.06,103.934,936.838Z" transform="translate(-87.602 -735.06)" fill="#2b2f83"/>
      <path id="Path_425" data-name="Path 425" d="M101.865,798.56a10.482,10.482,0,0,1,9.644,8.961c.8,28.9.433,40.76-.341,44.6a35.406,35.406,0,0,0-.684,5.062,47.994,47.994,0,0,0,.41,8.755c.453,4.293.68,6.439.957,8.413.584,4.15.77,11.219-1.163,23.94l-11.08.137A280.36,280.36,0,0,1,97.351,869.7c-.02-1.183-.067-4.647-.206-9.576-.107-3.835-.28-9.982-.547-14.364-.85-13.952-3.079-16.921-3.83-30.164-.283-4.979-.222-9.035-.137-11.56A10.291,10.291,0,0,1,101.865,798.56Z" transform="translate(-84.235 -694.117)" fill="url(#linear-gradient-3)"/>
      <path id="Path_426" data-name="Path 426" d="M104.43,952.116s0,7.08-.513,8.243-1.915,1.915-2.188,4.069a29.648,29.648,0,0,0-.274,3.352h14.228s-.206-2.36-.206-2.873a17.6,17.6,0,0,0-.992-2.838,8.72,8.72,0,0,0-.974-1.54c-.565-.683,0-8.413,0-8.413a44.823,44.823,0,0,1-4.686,0A38.646,38.646,0,0,0,104.43,952.116Z" transform="translate(-86.868 -739.566)" fill="#1b0c36"/>
      <path id="Path_427" data-name="Path 427" d="M82.371,735.418a29.731,29.731,0,0,0-.633,8.892,30.412,30.412,0,0,0,1.71,7.763c3.308,9.641,8.47,21.773,9.44,24.043l4.959-12q-2.743-6.285-5.487-12.569-.283-6.532-.567-13.063a5.676,5.676,0,0,0-4.087-4.464A5.989,5.989,0,0,0,82.371,735.418Z" transform="translate(-81.002 -674.955)" fill="url(#linear-gradient-4)"/>
      <path id="Path_428" data-name="Path 428" d="M94.62,753.546c.149.173.279.3.379.4.36.358.672.706.957,1.026l-.329-7.583a13.658,13.658,0,0,0-1.592,3.322,3.868,3.868,0,0,0-.107.429,2.864,2.864,0,0,0-.053.579,2.589,2.589,0,0,0,.259,1.093A3.285,3.285,0,0,0,94.62,753.546Z" transform="translate(-84.624 -678.968)" fill="url(#linear-gradient-5)"/>
      <path id="Path_429" data-name="Path 429" d="M92.086,742.979l-.173-3.988a5.774,5.774,0,0,0-.361-1.162l-8.612-2.263a4.918,4.918,0,0,0-.449.364,17.869,17.869,0,0,0-.442,2.471,49.675,49.675,0,0,0,5.422,2.847C89.519,741.961,90.578,742.6,92.086,742.979Z" transform="translate(-81.122 -675.467)" fill="#f59093"/>
      <path id="Path_430" data-name="Path 430" d="M147.526,735.233c1.11,1.738.531,2.711.821,6.908.392,5.669,1.683,7.278.41,10.26a10.75,10.75,0,0,1-1.573,2.462,22.559,22.559,0,0,1-7.661,6.293,26.974,26.974,0,0,1-10.1,3.04,5.943,5.943,0,0,1-3.922-5.708,5.837,5.837,0,0,1,2.326-4.1l10.944-3.489a23.473,23.473,0,0,1-1.711-5.508,23.769,23.769,0,0,1,.3-9.711s2.764-3.3,5.52-3.387C144.876,732.231,146.659,733.874,147.526,735.233Z" transform="translate(-93.985 -674.497)" fill="url(#linear-gradient-6)"/>
      <path id="Path_431" data-name="Path 431" d="M152.567,737.307l-6.036,1.276-4.739-.057a24,24,0,0,0-.371,3.737,12.6,12.6,0,0,0,4.109.116,17.511,17.511,0,0,0,7.438-3.334A2.377,2.377,0,0,0,152.567,737.307Z" transform="translate(-98.702 -675.982)" fill="#f59093"/>
      <path id="Path_432" data-name="Path 432" d="M135.084,703.215a22.1,22.1,0,0,1,2.682,1.162,28.926,28.926,0,0,1,6.207,4.617c2.643,2.357,3.964,3.534,4.515,4.463.435.733,1.069,2,1.744,6.772a78.385,78.385,0,0,1,.719,8.157,16.319,16.319,0,0,1-11.8,1.9q-.539-6.669-1.078-13.338a11.582,11.582,0,0,1-2.99-13.731Z" transform="translate(-96.503 -665.888)" fill="url(#linear-gradient-7)"/>
      <path id="Path_433" data-name="Path 433" d="M153.108,738.517c-.013-.369-.03-.729-.048-1.084a19.771,19.771,0,0,1-5.313,1.828,21.37,21.37,0,0,1-6.367-.206l-.1,1.027c.008.111.018.222.027.332a16.318,16.318,0,0,0,11.8-1.9Z" transform="translate(-98.66 -676.02)" fill="#2b2f83"/>
      <path id="Path_434" data-name="Path 434" d="M93.43,703.181c-.52.369-1.289.92-2.215,1.6-2.6,1.9-3.9,2.854-4.861,3.671-2.034,1.739-4.206,3.6-5.194,6.538-.55,1.638-.47,3.366-.308,6.823a55.72,55.72,0,0,0,.616,6.053,9.925,9.925,0,0,0,10.619,1.95,35.151,35.151,0,0,1,.359-14.929Q92.939,709.032,93.43,703.181Z" transform="translate(-80.733 -665.878)" fill="url(#linear-gradient-8)"/>
      <path id="Path_435" data-name="Path 435" d="M86.664,739.812c-1.461-.125-4.069-1.789-5.016-2.424.031.211.061.412.092.6a9.925,9.925,0,0,0,10.619,1.95c-.045-.234-.087-.479-.13-.726A28.647,28.647,0,0,1,86.664,739.812Z" transform="translate(-81.004 -676.006)" fill="#2b2f83"/>
      <path id="Path_436" data-name="Path 436" d="M111.046,782.749c6.123.131,11.815-.072,17-.47.412,1.063.693,1.922.848,2.419,1.763,5.634,1.892,10.628,1.984,15.407.016.808.017,1.453.017,1.778-2.582-1.782-6.123-3.534-9.747-2.719-4.326.974-5.359,4.837-8.8,4.7-3.658-.144-4.435-4.585-8.795-6.034-3.494-1.162-7.373.233-10.944,2.463.054-2.664.246-4.886.428-6.516.64-5.72,1.622-8.2,1.9-8.875a23.34,23.34,0,0,1,1.539-3.078C100.976,782.3,105.846,782.638,111.046,782.749Z" transform="translate(-84.25 -689.163)" fill="url(#linear-gradient-9)"/>
      <path id="Path_437" data-name="Path 437" d="M95.294,793.049,94.781,805a79.345,79.345,0,0,0,0,12.62c.616,4.822,2.975,18.211,3.078,20.161s3.386,58.226,3.386,58.226" transform="translate(-84.811 -692.487)" fill="none" stroke="#4d101e" stroke-miterlimit="10" stroke-width="0.81"/>
      <path id="Path_438" data-name="Path 438" d="M119.181,803.961s2.814-.924,3.053-5.062,0-14.911,0-14.911l-4.544.042Z" transform="translate(-91.675 -689.804)" fill="none" stroke="#4d101e" stroke-miterlimit="10" stroke-width="0.81"/>
      <path id="Path_439" data-name="Path 439" d="M100.641,794l-2.462,11.44s-1.675,3.693-3.283,1.078" transform="translate(-84.926 -692.767)" fill="none" stroke="#4d101e" stroke-linecap="round" stroke-linejoin="round" stroke-width="0.81"/>
      <path id="Path_440" data-name="Path 440" d="M140.242,785.165s.955,5.249,1.523,8.939,2.557,4.459,2.557,4.459" transform="translate(-98.352 -690.152)" fill="none" stroke="#4d101e" stroke-linecap="round" stroke-linejoin="round" stroke-width="0.81"/>
      <path id="Path_441" data-name="Path 441" d="M94.017,789.128c-.215,1.045-.433,2.31-.627,3.84,3.715-.133,7.011.824,12.064,0,4.021-.656,13.466-7.232,16.211-7.643,2.039-.3,5.69-.468,7.434-.532-.16-.508-.43-1.323-.818-2.323-3.775.29-7.82.474-12.1.5l-5.687.607Z" transform="translate(-84.48 -689.354)" fill="#4d101e"/>
      <path id="Path_442" data-name="Path 442" d="M99.7,700.221c-2.245,1.067-3.784,1.8-4.976,3.54-2.138,3.12-.313,5.33-1.077,13.953a20.367,20.367,0,0,0,.2,5.849,19.528,19.528,0,0,0,.821,3.026,62.765,62.765,0,0,1,.667,9.046,96.36,96.36,0,0,1-.821,12.244c-.491,4.271-1.114,10.479-1.591,18.366a28.991,28.991,0,0,0,10.928-.565c2.634-.667,2.614-1.09,11.337-4.361,3.441-1.29,5.785-2.051,8.977-2.1a17.224,17.224,0,0,1,4.823.616,78,78,0,0,1-1.847-14.416,127.922,127.922,0,0,1,.719-15.954c.325-3.585.417-3.427.581-5.934.323-4.937.566-9.083-.531-13.971a33.571,33.571,0,0,0-2.308-6.772l-10.773-4.668A26.96,26.96,0,0,0,99.7,700.221Z" transform="translate(-84.344 -664.297)" fill="url(#linear-gradient-10)"/>
      <path id="Path_443" data-name="Path 443" d="M103.826,699.654a6.3,6.3,0,0,0-1.359,3.338c-.24,2.945,1.895,5.1,2.463,5.669,2.457,2.477,5.645,2.706,7.259,2.822.713.051,7.277.427,10.773-3.95a6.922,6.922,0,0,0,1.693-3.95,7.208,7.208,0,0,0-.455-2.626l-6.546-2.837A27.429,27.429,0,0,0,103.826,699.654Z" transform="translate(-87.162 -664.298)" fill="#283996"/>
      <path id="Path_444" data-name="Path 444" d="M119.245,683.719l-.359,8.208,3.745,1.641a5.282,5.282,0,0,1,1.539,3.489c.051,3.581-4.467,5.738-5.181,6.079a11.326,11.326,0,0,1-4.464,1.052c-1.867.1-5.184.284-7.669-2-1.532-1.408-3.543-4.483-2.257-7.182a5.877,5.877,0,0,1,3.893-2.85q-.061-4.449-.122-8.9c-.169-3.967,3.2-6.835,6.207-6.463C117.324,677.134,119.762,680.172,119.245,683.719Z" transform="translate(-87.678 -658.056)" fill="url(#linear-gradient-11)"/>
      <path id="Path_445" data-name="Path 445" d="M118.266,687.6s-.76,7.683-8.231,9.7v-5.676l8.632-3.786Z" transform="translate(-89.409 -661.265)" fill="url(#linear-gradient-12)"/>
      <g id="Group_12807" data-name="Group 12807" transform="translate(7.359)">
        <g id="Group_12806" data-name="Group 12806" transform="translate(4.58 6.363)">
          <path id="Path_446" data-name="Path 446" d="M108.693,685.734a8.879,8.879,0,0,0,6.793-10.559l-3.234-15.948-8.092.769c-2.945.6-5.838,6.61-5.224,9.637l2.222,10.958A6.452,6.452,0,0,0,108.693,685.734Z" transform="translate(-98.038 -659.227)" fill="#f7a3a0"/>
          <path id="Path_447" data-name="Path 447" d="M99.6,677.237l-1.842,5.372a.744.744,0,0,0,.831,1.024l4.23-.859Z" transform="translate(-97.694 -664.559)" fill="#f7a3a0"/>
        </g>
        <path id="Path_448" data-name="Path 448" d="M102.178,659.3c5.873-3.632,8.757-4.439,8.757-4.439a6.194,6.194,0,0,1,2.951-.777,12.427,12.427,0,0,1,3.068.272c2.941.629,4.411.943,5.01,2.1a3.4,3.4,0,0,1-.051,2.847,3.229,3.229,0,0,1,2.052,1.821,3.2,3.2,0,0,1-.1,2.54,5.4,5.4,0,0,1,1.221,6.33,3.11,3.11,0,0,1,.19,2.7,3.021,3.021,0,0,1-2.924,1.727,4.233,4.233,0,0,1-.855,3.146c-.769.932-2.258,1.81-3.486,1.331-.852-.333-1.219-1.18-1.61-2.084a8.593,8.593,0,0,1-.616-4.378q-2.052-4.632-4.1-9.264l-.055-.032-2.162-3.2h-3.437S96.3,662.93,102.178,659.3Z" transform="translate(-93.883 -651.338)" fill="#1b0c36"/>
        <path id="Path_449" data-name="Path 449" d="M96.4,665.642a4.405,4.405,0,0,0,2.2-1.547,3.717,3.717,0,0,0,4.539-2.283A2.871,2.871,0,0,0,107.581,660a3.957,3.957,0,0,0,.342,3.591,3.023,3.023,0,0,0,1.06.847,3.139,3.139,0,0,0-.153,2.924,2.723,2.723,0,0,0,1.252,1.131c.41-1.121,1.074-2.849,2.01-4.912,2.4-5.277,4.465-7.465,3.618-9.993a3.675,3.675,0,0,0-1.648-2.1,3.917,3.917,0,0,0-3.2-.034,5.08,5.08,0,0,0-4.036-1.2,4.777,4.777,0,0,0-2.539,1.334,5.232,5.232,0,0,0-3.412-.274,5.5,5.5,0,0,0-3.463,3.12,3.589,3.589,0,0,0-4.164,5.053,3.849,3.849,0,0,0-1.984,3.967C91.769,665.445,94.517,666.191,96.4,665.642Z" transform="translate(-91.188 -650.188)" fill="#1b0c36"/>
        <path id="Path_450" data-name="Path 450" d="M118.8,679.335c2.727,1,5.55-6.623,2.861-7.747s-3.57,2.147-3.57,2.147l-.248,2.441.736,2.446.011.745Z" transform="translate(-99.081 -656.455)" fill="#f7a3a0"/>
      </g>
      <path id="Path_451" data-name="Path 451" d="M126.588,882.922l.381.058a4.722,4.722,0,0,1-1.328-.515,8.057,8.057,0,0,1-2.488-2.173c-.763-1-1.238-1.957-1.675-2.63a4.92,4.92,0,0,0-.37-.511q.1,1.415.214,2.821c-.08.122-.163.254-.244.379a6.682,6.682,0,0,0,1.1.979,8.92,8.92,0,0,0,3.362,1.412C125.984,882.834,126.34,882.888,126.588,882.922Z" transform="translate(-92.678 -717.388)" opacity="0.33" fill="url(#linear-gradient-13)" style="mix-blend-mode: multiply;isolation: isolate"/>
      <rect id="Rectangle_9" data-name="Rectangle 9" width="0.693" height="12.107" transform="translate(25.462 46.953)" fill="#283996"/>
      <path id="Path_452" data-name="Path 452" d="M121.534,720.319a.565.565,0,1,0-.565.565A.565.565,0,0,0,121.534,720.319Z" transform="translate(-92.479 -670.785)" fill="#283996"/>
      <path id="Path_453" data-name="Path 453" d="M121.534,725.566a.565.565,0,1,0-.565.564A.565.565,0,0,0,121.534,725.566Z" transform="translate(-92.479 -672.339)" fill="#283996"/>
      <path id="Path_454" data-name="Path 454" d="M121.534,730.813a.565.565,0,1,0-.565.565A.566.566,0,0,0,121.534,730.813Z" transform="translate(-92.479 -673.892)" fill="#283996"/>
      <path id="Path_455" data-name="Path 455" d="M147.128,757.578a9.862,9.862,0,0,0-2.842-.789c-.293-.024-.582-.038-.862-.034-.077,0-.149.007-.224.011.186.492.377.953.567,1.374l-1.4.446c.56-.138,1.222-.342,1.982-.517.253-.05.505-.1.75-.141s.486-.064.719-.089a7.448,7.448,0,0,1,1.247,0,4.433,4.433,0,0,1,1.138.223s-.1-.039-.287-.125S147.466,757.724,147.128,757.578Z" transform="translate(-98.981 -681.74)" fill="url(#linear-gradient-14)"/>
    </g>
    <path id="Path_456" data-name="Path 456" d="M122.131,673.644a4.14,4.14,0,0,1-.12,2.9,3.527,3.527,0,0,1-1.158,1.751c-.481.315-.865.241-.853.2-.006-.053.326-.081.7-.4a4.07,4.07,0,0,0,.976-1.669A12.144,12.144,0,0,0,122.131,673.644Z" transform="translate(103.902 -413.534)" fill="#f26b6d"/>
    <path id="Path_457" data-name="Path 457" d="M120.6,678.164c-.043,0-.081-.16.071-.342a.588.588,0,0,1,.853-.008.676.676,0,0,1,.084.824c-.092.178-.17.27-.214.251s-.051-.141-.027-.31a.549.549,0,0,0-.09-.513.365.365,0,0,0-.442-.055C120.712,678.076,120.653,678.176,120.6,678.164Z" transform="translate(103.734 -414.716)" fill="#f26b6d"/>
    <g id="Group_12811" data-name="Group 12811" transform="translate(125.725 260.705)">
      <rect id="Rectangle_10" data-name="Rectangle 10" width="9.8" height="19.324" rx="4.9" transform="translate(30.11 188.102) rotate(3.789)" fill="#a31c37"/>
      <path id="Path_458" data-name="Path 458" d="M21.158,929.171a15.525,15.525,0,0,1,1.693,6.259c0,.241-.089,4.4-.1,4.822a27.181,27.181,0,0,1-.769,5.335c-.962,3.724-2.217,4.188-1.9,6.259a5.439,5.439,0,0,0,1.334,2.77c2.413,2.647,7.466,2.562,8.721.616a3.963,3.963,0,0,0,.308-1.744,28.4,28.4,0,0,0-.462-6.105,9.662,9.662,0,0,1-.257-2.617c.253-1.717,1.217-2.193,1.18-3.539-.025-.89-.462-1.256-1.283-2.617A31.913,31.913,0,0,1,27.57,934.1c-1.608-3.954-1.368-5.077-2.463-5.643C24.429,928.1,23.265,927.979,21.158,929.171Z" transform="translate(7.776 -749.612)" fill="url(#linear-gradient-15)"/>
      <path id="Path_459" data-name="Path 459" d="M30.644,961.436a4.914,4.914,0,0,0-.821-2.018c-2.257-3.162-8.628-3.311-10.021-.992a2.755,2.755,0,0,0-.2,2.086" transform="translate(7.934 -758.09)" fill="none" stroke="#a31c37" stroke-linecap="round" stroke-linejoin="round" stroke-width="1.042"/>
      <path id="Path_460" data-name="Path 460" d="M30.816,952.584a3.6,3.6,0,0,0-.6-1.475c-1.65-2.31-6.308-2.419-7.326-.724a2.01,2.01,0,0,0-.15,1.525" transform="translate(6.996 -755.835)" fill="none" stroke="#a31c37" stroke-linecap="round" stroke-linejoin="round" stroke-width="0.762"/>
      <path id="Path_461" data-name="Path 461" d="M30.7,931.737c-1.1,5.617-1.817,9.885-2.086,11.8-.35,2.49-.048,1.71-.273,3.8a4.392,4.392,0,0,0,.068,1.675c.168.659.358.667.376,1.095.032.751-.543.943-.786,1.984a4.447,4.447,0,0,0-.068,1.2,10.712,10.712,0,0,0,.308,2.155c.29,1.4.335,1.4.479,2.189.24,1.311.355,1.975.1,2.36-.359.546-1.134.557-2.36.616-4.55.218-5.269.624-6.943,0a4.467,4.467,0,0,1-1.915-1.3,2.324,2.324,0,0,1-.684-1.608,2.081,2.081,0,0,1,.376-1.026c.549-.883,1.085-.878,1.711-1.539.587-.62.289-.808,1.163-2.633a12.463,12.463,0,0,0,.992-1.984,18.6,18.6,0,0,0,.17-2.394,11.908,11.908,0,0,1,.821-2.462s.448-1.247.889-3.044c.75-3.057.115-4.218.684-8.242.143-1.011.308-1.818.41-2.292Z" transform="translate(8.698 -750.656)" fill="url(#linear-gradient-16)"/>
      <path id="Path_462" data-name="Path 462" d="M20.063,688.678c-1.982,1.206-3.891-.526-8.324-1.475-5.258-1.125-12.811-1.276-14.075,1.428a1.315,1.315,0,0,0-.123.426c-.217,2.129,1.418,4.067,2.037,4.818,1.536,1.864,1.822,4.791,2.393,10.643.4,4.057.657,6.722-.153,9.85-1.67,6.444-7.631,13.869-14.826,13.8a12.1,12.1,0,0,1-6.464-2.1A20.19,20.19,0,0,0-7.826,720.32c.791-.8,6.159-6.419,5.662-13.861-.508-7.608-6.934-9.165-5.888-15.029.877-4.918,4.9-7.836,9.631-11.273,3.456-2.509,6.311-4.654,10.455-4.588a14.008,14.008,0,0,1,8.612,3.3,21.929,21.929,0,0,1,1.77,2c1.085,1.34,1.212,1.732,1.256,2.053a3.417,3.417,0,0,1-.769,2.283A10.367,10.367,0,0,1,20.063,688.678Z" transform="translate(19.472 -674.809)" fill="url(#linear-gradient-17)"/>
      <path id="Path_463" data-name="Path 463" d="M-1.881,713.626a23.276,23.276,0,0,1-5.433,10.35c-1.806,2.15-3.8,4.449-7.028,4.925a9.177,9.177,0,0,1-5.13-.821,16.244,16.244,0,0,0,5.387-4.207,16.634,16.634,0,0,0,3.591-8.156c.431-2.635.015-4.939-.821-9.439-1.373-7.392-2.5-8.2-2.052-11.543.19-1.409.841-6.247,4.155-8,2.442-1.294,4.654-.025,7.327-2.043,1.548-1.169,1.949-2.431,2.5-2.311.448.1.8,1.567.2,8.065a3.206,3.206,0,0,0-.727-1.863,2.516,2.516,0,0,0-1.321-.9c-1.264-.239-2.516,1.293-2.84,1.689C-7.082,693.052.415,702.745-1.881,713.626Z" transform="translate(19.472 -676.822)" fill="url(#linear-gradient-18)"/>
      <path id="Path_464" data-name="Path 464" d="M8.256,777.033a34.3,34.3,0,0,1-.786,11.7c-.817,3.273-1.857,5.215-2.7,9.542a45.178,45.178,0,0,0-.821,7.422,57,57,0,0,1,35.979-2.565,59.678,59.678,0,0,0-4.549-11.936A26.381,26.381,0,0,1,32.4,783.6a22.285,22.285,0,0,1-.342-6.156,44.976,44.976,0,0,0-23.8-.41Z" transform="translate(12.538 -704.435)" fill="url(#linear-gradient-19)"/>
      <path id="Path_465" data-name="Path 465" d="M-4.62,740.722c-.071,1.006-.172,2.551-.256,4.437-.233,5.2-.045,6.271-.179,10.722a105.308,105.308,0,0,1-.9,11.722c-.485,3.539-.65,3.245-.872,5.54-.388,4-.046,6.546.359,11.389.218,2.619.506,6.518.718,11.389a2.153,2.153,0,0,0,2.18,1.59c1.513-.082,1.986-1.756,1.99-1.774h0s.006-.037.011-.073C-.925,790.71-.439,785.02-.439,785.02c.551-6.445,1.394-6.411,1.872-13.261.2-2.892.025-2.519.231-4.925.46-5.379,1.386-7.735,2.1-12.081a57.327,57.327,0,0,0,.744-10.08A5.11,5.11,0,0,0,2.1,738.7,5.132,5.132,0,0,0-4.62,740.722Z" transform="translate(15.778 -693.338)" fill="url(#linear-gradient-20)"/>
      <path id="Path_466" data-name="Path 466" d="M44.163,741.086c.655,4.852,2.749,10.37,4.35,16.2,1.127,4.1,2.391,7.872,3.694,11.286A4.141,4.141,0,0,0,55.8,768.5a3.982,3.982,0,0,0,1.47-2.941c.553-3.729-.693-5.943-1.675-10.842a45.183,45.183,0,0,1-1.163-9.371,19.108,19.108,0,0,0-.377-4.549,16.977,16.977,0,0,0-1.881-4.823,4.747,4.747,0,0,0-5.951.479C45.048,737.653,43.6,739.4,44.163,741.086Z" transform="translate(0.667 -692.452)" fill="url(#linear-gradient-21)"/>
      <path id="Path_467" data-name="Path 467" d="M7.116,727.965a18.112,18.112,0,0,0-6.337,2.842c-1.608,1.142-3.632,2.578-4.489,5.207a8,8,0,0,0-.384,2.18l9.978,4.925a12.053,12.053,0,0,0,3.308-6.848A12.158,12.158,0,0,0,7.116,727.965Z" transform="translate(14.919 -690.322)" fill="url(#linear-gradient-22)"/>
      <path id="Path_468" data-name="Path 468" d="M40.766,728.851a18.835,18.835,0,0,0,1.995,13.35,33.974,33.974,0,0,0,9.747-5.618,6.891,6.891,0,0,0-2.462-4.335c-1.3-.971-2.458-.982-5.8-2.093C42.746,729.658,41.546,729.178,40.766,728.851Z" transform="translate(1.768 -690.585)" fill="url(#linear-gradient-23)"/>
      <path id="Path_469" data-name="Path 469" d="M21.273,725.294a11.509,11.509,0,0,0-6.994-.068,10.553,10.553,0,0,0-2.216,1.019l-3.015,1.042a18.258,18.258,0,0,1,.836,6.3,18.294,18.294,0,0,1-1.83,7.2q-.379,1.179-.759,2.359s-.186.422-.985,3.044c-.393,1.292-.52,3.389.752,6.874l.308,11.491a47.112,47.112,0,0,0,26.2-.137l.684-12.055q.315-.78.63-1.559a13.024,13.024,0,0,0,.675-3.62A13.431,13.431,0,0,0,34,740.421a19.119,19.119,0,0,1-2.008-12.182,17.893,17.893,0,0,1-2.673-1.325c-.548-.332-1.042-.671-1.484-1Z" transform="translate(11.919 -689.358)" fill="url(#linear-gradient-24)"/>
      <path id="Path_470" data-name="Path 470" d="M39.834,729.132c2.37.921,4.97,1.9,5.707,2.187,3.011,1.159,4.179,1.6,5.155,2.821a6.266,6.266,0,0,1,1.167,2.424" transform="translate(1.912 -690.668)" fill="none" stroke="#a31c37" stroke-linecap="round" stroke-linejoin="round" stroke-width="0.607"/>
      <path id="Path_471" data-name="Path 471" d="M39.337,730.526c2.828,1.1,5.022,1.846,6.544,2.334a7.71,7.71,0,0,1,3.655,1.963,6.37,6.37,0,0,1,1.423,2.514" transform="translate(2.06 -691.081)" fill="none" stroke="#a31c37" stroke-linecap="round" stroke-linejoin="round" stroke-width="0.607"/>
      <path id="Path_472" data-name="Path 472" d="M6.8,794.273a37.583,37.583,0,0,0,27.258-.616,28.034,28.034,0,0,1,5.511,12.9,27.813,27.813,0,0,1-.552,10.906l-17.169-.616L3.86,817.973a39.426,39.426,0,0,1,2.941-23.7Z" transform="translate(12.761 -709.773)" fill="url(#linear-gradient-25)"/>
      <path id="Path_473" data-name="Path 473" d="M11.42,821.343a17.91,17.91,0,0,0-7.645,3.278,152.268,152.268,0,0,0,3.541,21.551,149.823,149.823,0,0,1,3.693,18.879c.312,2.719.562,5.707.562,5.707.229,3.843.007,5.854.6,10.709A81.675,81.675,0,0,0,17.781,902.6l4.241-1.642q-.943-13.46-1.3-27.907c-.413-17.817-.006-34.662.957-50.412A18.078,18.078,0,0,0,11.42,821.343Z" transform="translate(12.589 -717.896)" fill="url(#linear-gradient-26)"/>
      <path id="Path_474" data-name="Path 474" d="M27.808,821.943a13.642,13.642,0,0,1,10.465-3.078A13.205,13.205,0,0,1,45.79,822.8c-.108.474-.272,1.2-.471,2.082-2.8,12.454-3.076,14.877-4.514,21.067-2.474,10.647-3.218,10.15-4.241,16.9a74.563,74.563,0,0,0-.889,12.107c.042,4.006.4,6.185.547,8.277.313,4.409-.13,10.82-3.693,19.22h-6.84c-1.646-9.858-1.35-15.8-.684-19.494A53.692,53.692,0,0,0,26.03,874c.059-2.3-.032-5.04-.069-6.156-.1-2.966-.256-5.143-.273-5.4C25.462,859.158,25.893,848.322,27.808,821.943Z" transform="translate(6.461 -717.197)" fill="url(#linear-gradient-27)"/>
      <path id="Path_475" data-name="Path 475" d="M14.745,717.365a11.363,11.363,0,0,0,5.873,5.117c2.759,1,7.3,1.291,9.8-1.487a6.582,6.582,0,0,0,1.482-2.928,4.474,4.474,0,0,1-1.847-1.427,5.158,5.158,0,0,1-.917-2.878c-.125-2.2-.163-7.148.034-13.663a5.516,5.516,0,0,0-10.807-1.3,95.581,95.581,0,0,1,0,12.654,7.364,7.364,0,0,1-1.6,4.416A6.044,6.044,0,0,1,14.745,717.365Z" transform="translate(9.341 -680.51)" fill="url(#linear-gradient-28)"/>
      <path id="Path_476" data-name="Path 476" d="M51.082,746.449a65.707,65.707,0,0,1,.957,8.242c.21,4.21.682,8.407.821,12.62a3.115,3.115,0,0,0,.855,2.36,3.755,3.755,0,0,0,3.215,1.351,4.172,4.172,0,0,0,2.816-1.809c1.509-2.07,1.066-4.773.159-8.981a43.244,43.244,0,0,0-1.539-5.541c-.621-2.16-3.679-13.219-4.548-16.519a5.671,5.671,0,0,0-4.1,2.052C50.111,741.712,50.63,743.848,51.082,746.449Z" transform="translate(-1.013 -693.345)" fill="url(#linear-gradient-29)"/>
      <path id="Path_477" data-name="Path 477" d="M22.614,711.651c-.141,1.167,2.338,5.163,6.1,6.527a6.04,6.04,0,0,0,2.74.487,24.839,24.839,0,0,0-.232-4.454C28.609,713.892,25.231,711.971,22.614,711.651Z" transform="translate(7.013 -685.492)" fill="url(#linear-gradient-30)"/>
      <g id="Group_12809" data-name="Group 12809" transform="translate(27.09 6.238)">
        <path id="Path_478" data-name="Path 478" d="M30.383,708.288a7.788,7.788,0,0,0,6-9.2l-2.01-9.573a7.765,7.765,0,0,0-15.2,3.192l2.01,9.573A7.788,7.788,0,0,0,30.383,708.288Z" transform="translate(-19.013 -683.351)" fill="#f7a3a0"/>
        <path id="Path_479" data-name="Path 479" d="M41.149,696.057a.315.315,0,0,1,.035-.008c.517-.083.587,1.531,1.823,2.886.422.463,1.1,1.028,1.042,1.417a1.929,1.929,0,0,1-.289.616l-.045.043a.786.786,0,0,1-.115.08,2.673,2.673,0,0,1-.806.229c-.72.085-.7.13-.8.113C40.877,701.248,40.294,696.34,41.149,696.057Z" transform="translate(-25.446 -687.11)" fill="#f7a3a0"/>
      </g>
      <path id="Path_480" data-name="Path 480" d="M16.506,691.683a7.73,7.73,0,0,1,.833-3.984l1.45-2.2a10.494,10.494,0,0,0-3.309,5.412,12,12,0,0,0-.257,2.8,30.676,30.676,0,0,0,.6,5.592,4.411,4.411,0,0,1-.043,2.338,3.451,3.451,0,0,1-.47.907c-2.786.434-9.982-5.885-11.094-11.364-.13-.636-1.371-7.283,3.292-12.347,4.574-4.969,11.771-5.176,16.433-3.115,4.055,1.792,7.324,5.8,6.565,7.433-.5,1.078-2.243.672-4.632,1.9a11.752,11.752,0,0,0-5.139,5.891,9.237,9.237,0,0,1,1.487-4.386c.353-.515.773-.994.667-1.128-.136-.172-1.592.611-2.761,1.539A12.8,12.8,0,0,0,16.506,691.683Z" transform="translate(12.53 -674.489)" fill="url(#linear-gradient-31)"/>
      <g id="Group_12810" data-name="Group 12810" transform="translate(23.773 17.497)">
        <path id="Path_481" data-name="Path 481" d="M18.606,701.229a3.293,3.293,0,0,0-2.506-1.877,1.876,1.876,0,0,0-1.5.454c-1.069,1.259.983,4.993,2.559,5.226a1.251,1.251,0,0,0,.773-.1c.424-.225.625-.724.869-1.331.08-.2.135-.367.169-.475A3.686,3.686,0,0,0,18.606,701.229Z" transform="translate(-14.301 -699.346)" fill="#f7a3a0"/>
        <path id="Path_482" data-name="Path 482" d="M16.122,701.574a9.679,9.679,0,0,0,1.111,1.554,9.649,9.649,0,0,0,1.63,1,2.231,2.231,0,0,1-1.88-.729A2.231,2.231,0,0,1,16.122,701.574Z" transform="translate(-14.83 -700.005)" fill="#f26b6d"/>
        <path id="Path_483" data-name="Path 483" d="M18.539,703.273c.1-.016.239.315.485.655s.517.572.47.666-.464-.03-.768-.45S18.44,703.28,18.539,703.273Z" transform="translate(-15.536 -700.508)" fill="#f26b6d"/>
      </g>
      <path id="Path_484" data-name="Path 484" d="M1.136,825.608a1.412,1.412,0,0,0,.018-1.128,1,1,0,0,0-.291-.325l-1.18,1.2a11.9,11.9,0,0,1-.17-1.728c-.02-.777.053-1.006,0-1.727a9.2,9.2,0,0,0-.257-1.556,12.242,12.242,0,0,0-.6-1.8,7,7,0,0,1-.285-3.535q.143-1.291.284-2.583a4.114,4.114,0,0,0-2.428-.141A4.239,4.239,0,0,0-6.3,814.205a16.825,16.825,0,0,1,.18,3.631,14.772,14.772,0,0,1-.419,2.882c-.364,1.444-.7,2.051-1.47,4.378-.17.511-.44,1.357-.034,1.881.189.243.553.384,1.283.667a4,4,0,0,1,1.231.581c.085.068.188.165.393.359.495.468.573.593.752.752A3.253,3.253,0,0,0-2.642,830a3.265,3.265,0,0,0,1.111.034,4.666,4.666,0,0,0,.735-.2,7.3,7.3,0,0,1,1.368-.274.719.719,0,0,0-.018-.616c-.123-.229-.386-.2-.564-.359s-.286-.491-.086-1.265A3.757,3.757,0,0,0,1.136,825.608Zm-3.988-1.167c-.129.472-.037.487-.141.808-.056.171-.256.8-.616.821-.294.021-.584-.368-.667-.705a1.6,1.6,0,0,1,.2-.988c.183-.465.309-.771.629-.936a1.019,1.019,0,0,1,.538-.1.967.967,0,0,1,.179.448A1.621,1.621,0,0,1-2.852,824.441Z" transform="translate(16.152 -715.253)" fill="url(#linear-gradient-32)"/>
      <path id="Path_485" data-name="Path 485" d="M50.146,732.537a20.782,20.782,0,0,0-3.018-6.832c-.21-.3-.423-.595-.641-.872a14.759,14.759,0,0,0-1.026-1.154c-.795-.838-1.206-1.391-1.513-1.744a12.676,12.676,0,0,0-3.924-2.8.843.843,0,0,0-.513.384.972.972,0,0,0,.051.821,2.206,2.206,0,0,0,1.154,1.129l-3.334-.41a1.21,1.21,0,0,0-.026.718c.063.21.194.412.693.8a5.435,5.435,0,0,0,1.129.718,8.089,8.089,0,0,0,2.36.693,1.819,1.819,0,0,0,.077.846,3.59,3.59,0,0,0,.693,1c.335.417.5.626.513.641.569.813.49,1.337,1.1,2.258.118.177.224.313.282.385a13.712,13.712,0,0,0,.231,1.77,7.231,7.231,0,0,0,.846,2.745,2.829,2.829,0,0,0,1.668,1.411c.3.06.543.027,1.718-.308.771-.22,1.421-.42,1.908-.575C50.432,733.618,50.283,733.079,50.146,732.537Z" transform="translate(2.659 -687.709)" fill="url(#linear-gradient-33)"/>
      <path id="Path_486" data-name="Path 486" d="M28.423,794.709c0,.581-.265,1.052-.591,1.052s-.59-.471-.59-1.052.265-1.052.59-1.052S28.423,794.128,28.423,794.709Z" transform="translate(5.64 -709.773)" fill="url(#linear-gradient-34)"/>
      <path id="Path_487" data-name="Path 487" d="M14.706,763.864a9.168,9.168,0,0,1-2.36.36,13.675,13.675,0,0,1-4.262-.708c-.4-.122-.742-.231-1.028-.308.093.291.192.591.307.9l.007.249c.1.056.194.111.3.166a8.591,8.591,0,0,0,7.331.135,7.95,7.95,0,0,0,1.832-1.142,6.319,6.319,0,0,0,1-1.033c.2-.272.286-.438.258-.463-.07-.061-.565.491-1.561,1.063A8.319,8.319,0,0,1,14.706,763.864Z" transform="translate(11.617 -700.406)" fill="url(#linear-gradient-35)"/>
      <path id="Path_488" data-name="Path 488" d="M41.131,762.851a8.44,8.44,0,0,1-1.818.4,12.7,12.7,0,0,1-2.363.014,20.2,20.2,0,0,1-4.37-.827,12.083,12.083,0,0,0-1.806-.565,5.123,5.123,0,0,0,1.607,1.052,15.308,15.308,0,0,0,4.429,1.476,9.414,9.414,0,0,0,2.646.1,5.81,5.81,0,0,0,2.091-.639q.014-.249.028-.5l.328-.813C41.681,762.646,41.426,762.751,41.131,762.851Z" transform="translate(4.596 -700.359)" fill="url(#linear-gradient-36)"/>
      <path id="Path_489" data-name="Path 489" d="M21.486,816.249a5.348,5.348,0,0,0,9.85.051,6.7,6.7,0,0,1-3.608,4.286,4.173,4.173,0,0,1-2.2.326C23.658,820.628,22.089,818.772,21.486,816.249Z" transform="translate(7.345 -716.462)" fill="url(#linear-gradient-37)"/>
      <path id="Path_490" data-name="Path 490" d="M8.331,795.844a31.062,31.062,0,0,0,13.7,2.565,40.408,40.408,0,0,0,13.7-3.258" transform="translate(11.24 -710.215)" fill="none" stroke="#f2673a" stroke-linecap="round" stroke-linejoin="round" stroke-width="0.81"/>
      <path id="Path_491" data-name="Path 491" d="M36.117,796.569a38.767,38.767,0,0,1-14.6,3.363,42.3,42.3,0,0,1-13.62-2.462" transform="translate(11.369 -710.635)" fill="none" stroke="#f2673a" stroke-linecap="round" stroke-linejoin="round" stroke-width="0.81"/>
      <path id="Path_492" data-name="Path 492" d="M-2.613,738.3A8.888,8.888,0,0,1-.886,733.92c1.023-1.328,2.179-1.965,4.343-3.13A35.621,35.621,0,0,1,8.9,728.431" transform="translate(14.48 -690.46)" fill="none" stroke="#a31c37" stroke-linecap="round" stroke-linejoin="round" stroke-width="0.607"/>
      <path id="Path_493" data-name="Path 493" d="M-1.325,738.936A8.264,8.264,0,0,1,.7,734.473c.527-.57,1.207-1.117,4.437-2.667,1.752-.841,3.289-1.514,4.514-2.027" transform="translate(14.099 -690.86)" fill="none" stroke="#a31c37" stroke-linecap="round" stroke-linejoin="round" stroke-width="0.607"/>
      <path id="Path_494" data-name="Path 494" d="M13.542,727.6a9.861,9.861,0,0,0,1.283,2.21,10.983,10.983,0,0,0,9.375,4.129c.636-.049,5.534-.5,7.374-4.026a5.942,5.942,0,0,0,.551-1.565" transform="translate(9.697 -690.216)" fill="none" stroke="#a31c37" stroke-linecap="round" stroke-linejoin="round" stroke-width="0.607"/>
      <path id="Path_495" data-name="Path 495" d="M28.358,972.993l-12.3-.257a.779.779,0,0,1,.032-1.559l12.3.257a.779.779,0,0,1-.032,1.559Z" transform="translate(9.178 -762.333)" fill="#a31c37"/>
      <path id="Path_496" data-name="Path 496" d="M17.322,970.06c-.1-.871-.238-3.037,1.009-4.223.292-.278.91-.74,5.086-.445,4.3.3,4.825.876,5.063,1.24.755,1.156.305,2.827,0,3.685" transform="translate(8.597 -760.592)" fill="none" stroke="#a31c37" stroke-miterlimit="10" stroke-width="1.042"/>
      <path id="Path_497" data-name="Path 497" d="M21.814,959.3a4.541,4.541,0,0,1,1.437-1.334,5,5,0,0,1,5.284.154,4.443,4.443,0,0,1,1.308,1.514" transform="translate(7.248 -758.221)" fill="none" stroke="#a31c37" stroke-linecap="round" stroke-linejoin="round" stroke-width="1.042"/>
      <path id="Path_498" data-name="Path 498" d="M25.64,957.5c-.479,1.685-1.081,3.8-1.56,5.486" transform="translate(6.577 -758.285)" fill="none" stroke="#a31c37" stroke-linecap="round" stroke-linejoin="round" stroke-width="1.042"/>
      <path id="Path_499" data-name="Path 499" d="M28.207,957.5c-.479,1.685-1.081,3.8-1.56,5.486" transform="translate(5.817 -758.285)" fill="none" stroke="#a31c37" stroke-linecap="round" stroke-linejoin="round" stroke-width="1.042"/>
    </g>
    <path id="Path_500" data-name="Path 500" d="M235.159,678.559H186.028l-7.752,4.742a1.538,1.538,0,0,1-2.34-1.3l-.074-13.6a10.2,10.2,0,0,1,10.165-10.165h49.131a10.165,10.165,0,1,1,0,20.331Z" transform="translate(87.362 -408.97)" fill="#b56d97"/>
    <path id="Path_502" data-name="Path 502" d="M217.046,717.248H182.923l-5.383,3.293a1.068,1.068,0,0,1-1.625-.905c-.018-3.149-.051-9.448-.051-9.448a7.081,7.081,0,0,1,7.06-7.06h34.123a7.06,7.06,0,1,1,0,14.121Z" transform="translate(87.362 -422.264)" opacity="0.43" fill="url(#linear-gradient-38)"/>
    <path id="Path_503" data-name="Path 503" d="M193.832,824.166H182.923l-5.383,3.293a1.068,1.068,0,0,1-1.625-.905c-.018-3.149-.051-9.448-.051-9.448a7.081,7.081,0,0,1,7.06-7.06h10.909a7.06,7.06,0,1,1,0,14.12Z" transform="translate(87.362 -501.267)" fill="#613b97"/>
    <rect id="Rectangle_11" data-name="Rectangle 11" width="51.574" height="2.12" rx="1.06" transform="translate(273.723 254.802)" fill="#fff"/>
    <rect id="Rectangle_12" data-name="Rectangle 12" width="26.642" height="2.12" rx="0.786" transform="translate(273.723 259.06)" fill="#fff"/>
    <rect id="Rectangle_17" data-name="Rectangle 17" width="26.642" height="2.12" rx="0.786" transform="translate(273.723 286.975)" fill="#fff"/>
    <path id="Path_504" data-name="Path 504" d="M189.421,816.81a2.367,2.367,0,0,1,4.6-.8,2.714,2.714,0,0,1,3.012-1.365c1.191.513,1.122,2.488,1.111,2.719-.146,3.06-4.124,4.806-4.453,4.945C190.833,820.914,189.127,818.715,189.421,816.81Z" transform="translate(83.357 -502.572)" fill="#fff"/>
    <path id="Path_505" data-name="Path 505" d="M-120.614,728.3h49.131l7.751,4.741a1.537,1.537,0,0,0,2.34-1.3c.025-4.535.075-13.6.075-13.6a10.2,10.2,0,0,0-10.165-10.165h-49.131a10.2,10.2,0,0,0-10.165,10.165A10.2,10.2,0,0,0-120.614,728.3Z" transform="translate(178.153 -423.698)" fill="#b56d97"/>
    <path id="Path_507" data-name="Path 507" d="M-93.576,766.992h34.123l5.384,3.292a1.067,1.067,0,0,0,1.625-.905c.018-3.149.052-9.447.052-9.447a7.081,7.081,0,0,0-7.06-7.06H-93.576a7.081,7.081,0,0,0-7.06,7.06A7.082,7.082,0,0,0-93.576,766.992Z" transform="translate(169.228 -436.992)" opacity="0.43" fill="url(#linear-gradient-38)"/>
    <path id="Path_508" data-name="Path 508" d="M-60.6,873.91h10.909L-44.3,877.2a1.068,1.068,0,0,0,1.625-.905c.018-3.149.052-9.448.052-9.448a7.081,7.081,0,0,0-7.06-7.06H-60.6a7.081,7.081,0,0,0-7.06,7.06A7.081,7.081,0,0,0-60.6,873.91Z" transform="translate(159.464 -515.996)" fill="#06a7e1"/>
    <rect id="Rectangle_18" data-name="Rectangle 18" width="51.574" height="2.12" rx="1.06" transform="translate(106.337 291.938) rotate(180)" fill="#fff"/>
    <rect id="Rectangle_19" data-name="Rectangle 19" width="26.642" height="2.12" rx="0.786" transform="translate(106.337 296.196) rotate(180)" fill="#fff"/>
    <rect id="Rectangle_24" data-name="Rectangle 24" width="26.642" height="2.12" rx="0.786" transform="translate(106.337 324.111) rotate(180)" fill="#fff"/>
    <path id="Path_509" data-name="Path 509" d="M-49.344,866.554a2.762,2.762,0,0,0-1.734-2.3,2.77,2.77,0,0,0-2.868,1.5,2.714,2.714,0,0,0-3.011-1.364c-1.192.513-1.122,2.488-1.111,2.719.146,3.06,4.124,4.806,4.453,4.946C-50.755,870.658-49.05,868.458-49.344,866.554Z" transform="translate(156.626 -517.3)" fill="#fff"/>
    <g id="Group_12814" data-name="Group 12814" transform="translate(213.612 200.352)">
      <rect id="Rectangle_25" data-name="Rectangle 25" width="29.729" height="27.102" rx="6.037" transform="translate(4.574 0) rotate(9.715)" fill="#68a738"/>
      <path id="Path_510" data-name="Path 510" d="M118.17,628.713l3.3,8.243a1.369,1.369,0,0,0,2.317.241l5.952-6.658a1.368,1.368,0,0,0-.853-2.184l-9.257-1.585A1.369,1.369,0,0,0,118.17,628.713Z" transform="translate(-109.128 -600.001)" fill="#68a738"/>
      <path id="Path_511" data-name="Path 511" d="M119.725,605.765c.366-1.159,1.518-3.228,3.506-3.415,1.716-.162,3.549,1.128,4.425,3.259,1.742-1.845,4.045-2.362,5.407-1.511,1.867,1.169,1.24,4.465,1.161,4.85-1.037,5.1-8.163,7-8.752,7.148C121.03,613.017,118.738,608.885,119.725,605.765Z" transform="translate(-109.562 -592.773)" fill="#fff"/>
    </g>
    <g id="Group_12815" data-name="Group 12815" transform="translate(127.682 214.824)">
      <path id="Rectangle_26" data-name="Rectangle 26" d="M6.037,0H23.692a6.038,6.038,0,0,1,6.038,6.038V21.064A6.037,6.037,0,0,1,23.692,27.1H6.037A6.037,6.037,0,0,1,0,21.064V6.037A6.037,6.037,0,0,1,6.037,0Z" transform="matrix(0.942, -0.336, 0.336, 0.942, 0, 9.981)" fill="#613b97"/>
      <path id="Path_512" data-name="Path 512" d="M8.578,653.564l6.919,5.567a1.369,1.369,0,0,0,2.139-.924l1.928-8.721A1.369,1.369,0,0,0,17.749,648L8.9,651.153A1.369,1.369,0,0,0,8.578,653.564Z" transform="translate(9.383 -620.742)" fill="#613b97"/>
      <path id="Path_513" data-name="Path 513" d="M-.779,632.33c-.248-1.19-.258-3.558,1.383-4.694,1.417-.981,3.647-.755,5.454.674.615-2.462,2.37-4.042,3.974-3.966,2.2.1,3.268,3.285,3.389,3.66,1.593,4.952-3.689,10.1-4.129,10.518C3.912,638.013-.111,635.533-.779,632.33Z" transform="translate(12.016 -613.761)" fill="#fff"/>
    </g>
    <path id="Path_391" data-name="Path 391" d="M947.326,360.809a8.523,8.523,0,0,0-1.712.172c0-.059.009-.115.009-.172a8.511,8.511,0,0,0-12.642-7.445,8.513,8.513,0,0,0-16.988.8,8.517,8.517,0,0,0-8.339,6.787,8.512,8.512,0,1,0-1.538,16.883h41.21a8.514,8.514,0,1,0,0-17.029Z" transform="translate(-597.915 -143.518)" fill="#fff"/>
    <path id="Path_13" data-name="Path 13" d="M837.764,333.163a7.916,7.916,0,0,1,1.587.16c0-.054-.008-.106-.008-.16a7.893,7.893,0,0,1,11.725-6.9,7.9,7.9,0,0,1,15.756.745,7.9,7.9,0,0,1,7.733,6.294,7.894,7.894,0,1,1,1.427,15.658h-38.22a7.9,7.9,0,0,1,0-15.794Z" transform="translate(-798.179 -84.788)" fill="#d8a4b1" opacity="0.24"/>
  </g>
</svg>
