<svg xmlns="http://www.w3.org/2000/svg" width="17.214" height="17.213" viewBox="0 0 17.214 17.213">
  <path id="Icon_ionic-ios-call" data-name="Icon ionic-ios-call" d="M21.207,17.98a14.458,14.458,0,0,0-3.02-2.021c-.905-.435-1.237-.426-1.878.036-.533.385-.878.744-1.492.609a8.9,8.9,0,0,1-3-2.218,8.838,8.838,0,0,1-2.218-3c-.13-.618.229-.959.609-1.492.462-.641.475-.972.036-1.878A14.173,14.173,0,0,0,8.225,5c-.659-.659-.807-.515-1.17-.385a6.655,6.655,0,0,0-1.071.569A3.231,3.231,0,0,0,4.7,6.54c-.255.551-.551,1.577.954,4.257a23.754,23.754,0,0,0,4.176,5.57h0l0,0,0,0h0a23.847,23.847,0,0,0,5.57,4.176c2.68,1.506,3.706,1.21,4.257.954a3.176,3.176,0,0,0,1.358-1.286,6.655,6.655,0,0,0,.569-1.071C21.722,18.787,21.87,18.639,21.207,17.98Z" transform="translate(-4.49 -4.503)" fill="#fff"/>
</svg>
