<svg xmlns="http://www.w3.org/2000/svg" width="244.15" height="71.968" viewBox="0 0 244.15 71.968">
    <path id="Path_45992" data-name="Path 45992"
        d="M-142.826-14.1a14.887,14.887,0,0,1-.76,2.384q-.474,1.144-.854,2-.474.954-.854,1.764a4.54,4.54,0,0,1-1.138,1.478,9.232,9.232,0,0,0-1-.334q-.522-.143-1.091-.334a1.457,1.457,0,0,0-.57-.238,1.673,1.673,0,0,1-.475-.143,2.428,2.428,0,0,1-1.328-1.049q-.475-.763-.948-1.621a10.148,10.148,0,0,1-.571-2.384q-.094-.572-.142-1.192a6.571,6.571,0,0,0-.237-1.287,23.6,23.6,0,0,1-.333-5.388,45.441,45.441,0,0,0-.047-5.483,11.235,11.235,0,0,1,.143-2.718,11.858,11.858,0,0,0,.143-2.813,4.68,4.68,0,0,0,.191-1.287v-1.383a1.821,1.821,0,0,1,.141-.715,1.112,1.112,0,0,0,.047-.715,1.98,1.98,0,0,1,0-.858l.188-.763a2.208,2.208,0,0,0,0-.906,1.2,1.2,0,0,1,.094-.811,1.685,1.685,0,0,0,.093-.954,1.685,1.685,0,0,1,.093-.954,2.03,2.03,0,0,0,.141-.954,3.258,3.258,0,0,1,.047-.954,2.03,2.03,0,0,0,.141-.954,2.03,2.03,0,0,1,.141-.954,6.521,6.521,0,0,0,.141-.763,6.521,6.521,0,0,1,.141-.763q.188-.954.281-1.86a15.82,15.82,0,0,1,.281-1.764,6.6,6.6,0,0,0,.235-1.287,6.6,6.6,0,0,1,.235-1.287,2.965,2.965,0,0,1,.75-1.621,2.667,2.667,0,0,1,1.266.572q.609.477,1.173.858a1.135,1.135,0,0,1,.572.763q.1.477.191,1.049a43.38,43.38,0,0,1,.286,6.389q-.1,3.147,0,6.294a7.2,7.2,0,0,0-.191,2.336,8.647,8.647,0,0,1-.1,2.241,6.153,6.153,0,0,0-.1,1.86,5.451,5.451,0,0,1-.1,1.764,9.324,9.324,0,0,0-.143,2.1,9.325,9.325,0,0,1-.143,2.1,9.216,9.216,0,0,0-.1,2.289,10.12,10.12,0,0,1-.1,2.384,20.4,20.4,0,0,0-.19,3.958q.095,2.05,0,4.148a1.537,1.537,0,0,0,.191.668q.191-.381.334-.715t.334-.715q.763-1.621,1.574-3.147a23.051,23.051,0,0,0,1.383-3.147,2.859,2.859,0,0,0,.62-1.287,6.971,6.971,0,0,1,.429-1.383q.286-.572.62-1.192a3.912,3.912,0,0,0,.429-1.383,12.765,12.765,0,0,0,.763-1.86q.286-.906.572-1.86l1.717-4.387,1.717-4.387q.381-.954.715-1.812t.715-1.907a16.369,16.369,0,0,0,.811-2.193,16.367,16.367,0,0,1,.811-2.193.647.647,0,0,1,.191-.477h.668a9.484,9.484,0,0,0,1.907,1.144,6.233,6.233,0,0,1,.381,2.146V-40.8q0,.668.048,1.335a7.334,7.334,0,0,1-.048,1.43,14.12,14.12,0,0,0-.238,3.052q.048,1.526.048,3.052a51.961,51.961,0,0,0,0,6.294q0,.477.048.954t.143.954a2.407,2.407,0,0,1,0,.954,1.032,1.032,0,0,0,.191.858v.572a11.306,11.306,0,0,0,.143,1.764q.143.906.334,1.764a18.524,18.524,0,0,0,1.43,4.482.742.742,0,0,0,.763-.238,2.859,2.859,0,0,1,.572-.525,4.392,4.392,0,0,0,1-1.24q.429-.763.906-1.526a17.493,17.493,0,0,0,1.621-3.052q.668-1.621,1.24-3.242a27.853,27.853,0,0,0,1-2.718,24.525,24.525,0,0,0,.715-3q.191-.763.381-1.574t.381-1.764a13.408,13.408,0,0,0,.286-1.478q.1-.715.191-1.478.191-1.049.334-2.05t.334-1.955a4.68,4.68,0,0,0,.191-1.287,11.24,11.24,0,0,1,.1-1.383,8.032,8.032,0,0,1,.191-1.43,1.733,1.733,0,0,0,0-.811.739.739,0,0,1,.286-.715v-.477a7.259,7.259,0,0,1,.1-2.623,7.26,7.26,0,0,0,.1-2.623,8.016,8.016,0,0,0,.238-2.289,22.049,22.049,0,0,1,.048-2.479v-4.482a21.234,21.234,0,0,0-.143-2.527q-.143-1.192-.334-2.432a1.5,1.5,0,0,0-.381-.286,1.494,1.494,0,0,1-.381-.286v-.572a.72.72,0,0,0,.286-.238,2.312,2.312,0,0,1,.286-.334q.477.1.811.191a1.435,1.435,0,0,1,.62.381,2.559,2.559,0,0,0,1.335.858,3.582,3.582,0,0,1,.334.381,2.785,2.785,0,0,0,.238.286l.286.572.191.381.191,1.526q.1.763.286,1.621a8.167,8.167,0,0,1,.048,1.526A4.977,4.977,0,0,0-113.4-57.2a7.462,7.462,0,0,1,.1,2.05,7.462,7.462,0,0,0,.1,2.05,11.1,11.1,0,0,1,.238,2.718q-.048,1.383-.048,2.813a26.455,26.455,0,0,1,.048,2.766q-.048,1.43-.048,2.861a4.167,4.167,0,0,1-.1.906,4.167,4.167,0,0,0-.1.906,6.971,6.971,0,0,0,.048.858,2.694,2.694,0,0,1-.048.858,2.441,2.441,0,0,0-.191.906v.906a4.167,4.167,0,0,1-.1.906q-.1.429-.191.906-.1,1.049-.286,2.1l-.381,2.1a11.636,11.636,0,0,0-.334,1.24q-.143.668-.334,1.335a16,16,0,0,1-.477,1.955,16,16,0,0,0-.477,1.955q-.286,1.049-.668,2.1t-.858,2.1q-.572,1.24-1.192,2.527a15.092,15.092,0,0,1-1.383,2.336q-.381.668-.715,1.287a4.673,4.673,0,0,1-.811,1.1,18.592,18.592,0,0,1-1.335,1.383,9.491,9.491,0,0,1-1.43,1.1.389.389,0,0,0-.286.1.275.275,0,0,1-.191.1h-1.43a2.287,2.287,0,0,1-1.335-.477.818.818,0,0,0-.715-.048q-.334.143-.524-.334a2.247,2.247,0,0,1-1.574-.858q-.62-.763-1.287-1.526a9.132,9.132,0,0,1-.906-2.384q-.429-1.621-.62-2.766-.191-1.049-.286-1.955a12.409,12.409,0,0,0-.381-1.955v-.381a23.224,23.224,0,0,0-.143-3.91,18.75,18.75,0,0,1-.048-4.005q.1-.668.143-1.335t.048-1.43a5.036,5.036,0,0,0,0-1.383,3.363,3.363,0,0,1,.1-1.383,8.465,8.465,0,0,0,.143-1.955q-.048-.906-.143-1.955-.569,1.526-1.186,2.956t-1.186,2.956q-.665,1.621-1.234,3.1t-1.234,3.1q-.474,1.526-1,3.052t-1.091,3.052a29.955,29.955,0,0,1-1.091,3.1,11.584,11.584,0,0,0-.807,3.195l.285-.143a1.349,1.349,0,0,0,.284-.238,2.384,2.384,0,0,0-.237.715.731.731,0,0,1-.332.525.785.785,0,0,0-.048-.238.785.785,0,0,1-.048-.238h-.094v.477q-.1.1-.143.1t-.142.1A1.464,1.464,0,0,0-142.826-14.1Zm-5.385.954a37.456,37.456,0,0,0,.191-3.91,13.986,13.986,0,0,0-.191-2.861Zm1.24-27.655a2.893,2.893,0,0,0,0,1.812Zm33.282-6.008q-.094.477-.142.858a1.742,1.742,0,0,0,.143.858Zm-34.331,23.269q.1-.477.143-.858a1.742,1.742,0,0,0-.143-.858Zm.477-7.82h.191v-.858a1.057,1.057,0,0,0-.048-.334,1.056,1.056,0,0,1-.048-.334h-.1Zm-.1,2.289h-.191v.668a2.006,2.006,0,0,0,.048.477,1.568,1.568,0,0,1,.048.381h.1Zm.477-7.438h-.191v1.24a.275.275,0,0,0,.191.1Zm33.282-4.005h-.191a1.637,1.637,0,0,0,.1.668h.1Zm-17.07,2.861h.191v-.763h-.191Zm-.1,5.436h.191a1.636,1.636,0,0,0-.1-.668h-.1Zm-10.681,14.877a2.005,2.005,0,0,1-.048.477,1.305,1.305,0,0,0-.048.286.552.552,0,0,1-.1-.381.194.194,0,0,1,.048-.143A1.1,1.1,0,0,0-141.727-17.338ZM-142.2-16a.769.769,0,0,0,.1-.334.323.323,0,0,1,.1-.238.194.194,0,0,0,.048.143.377.377,0,0,1,.048.238l-.1.1q-.1,0-.1.048T-142.2-16Zm-.381,1.335q0,.477-.191.572v-.572Zm48.254-23.841a.513.513,0,0,1-.143.572,1.022,1.022,0,0,0-.334.572h-.381a11.391,11.391,0,0,0-.715,1,11.391,11.391,0,0,1-.715,1q-.668.763-1.287,1.526t-1.287,1.526a7.161,7.161,0,0,0-.668.763,3.321,3.321,0,0,1-.668.668,2.052,2.052,0,0,1-.524.524q-.334.238-.715.524a13.469,13.469,0,0,1-.1,1.574,6.513,6.513,0,0,0,0,1.574q.1,1.144.143,2.289a7.263,7.263,0,0,0,.429,2.193,3.7,3.7,0,0,1,.191.477,3.7,3.7,0,0,0,.191.477,13.5,13.5,0,0,0,3.481-1.383,30.692,30.692,0,0,0,3.1-2.05q2-1.907,3.767-3.719a11.42,11.42,0,0,0,2.623-4.291l.191-.381a.732.732,0,0,0,.286.1.732.732,0,0,1,.286.1,3.7,3.7,0,0,1,.191.477l.191.572.143-.286.143-.286a5.851,5.851,0,0,0,.048.811,4.4,4.4,0,0,1,.048.62h.1a1.057,1.057,0,0,1,.048-.334q.048-.143.143-.525a4.243,4.243,0,0,1,.1.811,2.956,2.956,0,0,0,.1.715h.1a2.679,2.679,0,0,1,.048-.525,2.679,2.679,0,0,0,.048-.524,3.6,3.6,0,0,1,.143,1.192,5.373,5.373,0,0,1-.334,1.192,17.013,17.013,0,0,1-3.1,4.148,43.5,43.5,0,0,1-3.767,3.385q-1.335,1.049-2.956,2.1a8.776,8.776,0,0,1-1.192.668,4.66,4.66,0,0,1-1.383.381l-.381.191q-1.144-.381-2.336-.668t-2.432-.668a5.77,5.77,0,0,1-3.433-2.956,12.075,12.075,0,0,1-1.144-3.719,20.125,20.125,0,0,1-.1-6.485,26.676,26.676,0,0,1,3.624-11.253,16.268,16.268,0,0,1,1-1.43,16.268,16.268,0,0,0,1-1.43,4.168,4.168,0,0,1,.858-.954,11.611,11.611,0,0,0,.954-.858,4.7,4.7,0,0,1,5.913-.572,6.562,6.562,0,0,1,.811.381,6.971,6.971,0,0,1,.715.477,3.588,3.588,0,0,1,1.144,1.049,2.07,2.07,0,0,1,.381.763,6.416,6.416,0,0,1-.1,2.479,16.1,16.1,0,0,1-.763,2.289,11.249,11.249,0,0,1-.62,1.383q-.334.62-.62,1.287-.191,0-.191.1l-.1-.191a.275.275,0,0,0-.1.191q-.572.191,0,.477Zm.954-2.1q-.572,0,0,.381v-.381q.286-.191,0-.477ZM-95.285-46.9l-.381.381-.381.381q-.477.763-1,1.526t-1,1.621a34.79,34.79,0,0,0-1.955,4.482,33.883,33.883,0,0,0-1.287,4.673,2.211,2.211,0,0,0,.048.429,2.679,2.679,0,0,1,.048.524q.477-.572.811-1.049t.715-.954a23.725,23.725,0,0,0,2.146-3.338,37.968,37.968,0,0,0,1.669-3.624,10.212,10.212,0,0,0,.668-2.384A7.647,7.647,0,0,0-95.285-46.9Zm-7.629,21.266v0ZM-92.138-44.9h-.191a1.056,1.056,0,0,0,.048.334,1.057,1.057,0,0,1,.048.334h.1Zm-10.585,13.542h.1v-.668h-.1Zm.286-2h-.1v.477h.1Zm10.013-10.109h-.1a.423.423,0,0,0,.048.191.423.423,0,0,1,.048.191h.1A.552.552,0,0,0-92.424-43.468Zm-.477,1.717.1-.1v-.286h-.1Zm.286-1.049a.084.084,0,0,0-.1.1v.286h.1Zm-1.621,3.91a.275.275,0,0,1,.1-.191.275.275,0,0,0,.1.191v.238q0,.143-.286.143l.1.1Zm13.351-37.573a1.484,1.484,0,0,1,1.1.572,1.75,1.75,0,0,0,.906.668,1.671,1.671,0,0,0-.1.525.946.946,0,0,1-.1.429h.1a1.311,1.311,0,0,0,.286-.668,5.549,5.549,0,0,0,.238.858,2.16,2.16,0,0,1,.143.763v1.907q-.1,1.049-.143,2.1a15.7,15.7,0,0,1-.238,2.1q0,1.049-.1,2.05t-.286,2.05q-.1.763-.238,1.526a8.263,8.263,0,0,0-.143,1.526q-.1,2-.381,3.958t-.381,3.958q-.1,1.43-.286,2.813a19.875,19.875,0,0,0-.191,2.718,16.919,16.919,0,0,1-.191,2.575,16.916,16.916,0,0,0-.191,2.575,13.349,13.349,0,0,1-.191,2.193,13.349,13.349,0,0,0-.191,2.193,9.049,9.049,0,0,1-.143,1.574,3.74,3.74,0,0,0,.048,1.574,8.553,8.553,0,0,1-.191,1.764,4.127,4.127,0,0,0,0,1.764.156.156,0,0,1,.048.191.156.156,0,0,0,.048.191,27.634,27.634,0,0,0-.286,3.91q0,1.049-.048,2.1t-.048,2.1q-.1,1.049-.1,2.05v2.05q0,1.24-.048,2.384t-.048,2.193a13.5,13.5,0,0,1-.143,2,13.5,13.5,0,0,0-.143,2,2.547,2.547,0,0,0-.484.668,2.771,2.771,0,0,1-.534-.048,2.278,2.278,0,0,0-.436-.048l-1.745-.858a1.1,1.1,0,0,0-.34.048.223.223,0,0,1-.243-.048,2.021,2.021,0,0,1-1.162-1.049,33.952,33.952,0,0,1-.534-3.958q-.145-1.955-.339-3.958a25.019,25.019,0,0,1-.238-2.575q-.048-1.24-.143-2.575-.1-1.43-.1-2.718v-2.623a14.266,14.266,0,0,1-.048-2q.048-.954.048-1.907a11.177,11.177,0,0,1,.1-1.478,11.177,11.177,0,0,0,.1-1.478,13.9,13.9,0,0,1,.191-2.289,13.9,13.9,0,0,0,.191-2.289,47.57,47.57,0,0,1,.436-4.768q.339-2.384.533-4.864.291-2.1.581-4.244t.484-4.339q.194-1.049.387-2.05t.484-2.05q.289-1.049.483-2.146t.484-2.146a18.225,18.225,0,0,1,.484-2l.581-1.907a10.743,10.743,0,0,1,.533-1.812q.339-.858.726-1.812a3.408,3.408,0,0,1,.431-1.1A6.851,6.851,0,0,1-80.885-76.464Zm.1,17.452h.1q.191-1.43.381-2.766t.381-2.766h-.1q-.191,1.335-.381,2.718T-80.789-59.012Zm-.954,9.822h.1q.1-.763.143-1.478t.143-1.478h-.1q-.1.763-.143,1.478T-81.743-49.19Zm2.193-19.55h.1q.1-.763.191-1.43l.191-1.335h-.1l-.191,1.335Q-79.454-69.5-79.55-68.74Zm-2.766,25.748q.191-.668.381-1.287a2.548,2.548,0,0,0,0-1.383q-.1.668-.143,1.335A6.548,6.548,0,0,1-82.315-42.991Zm-.286,4.864h.1q.1-.477.143-.954a6.03,6.03,0,0,1,.143-.858l-.1-.1q-.1.477-.143.954T-82.6-38.128Zm-.191,3.433h.092a3.346,3.346,0,0,1,.1-.954h-.1A3.449,3.449,0,0,0-82.792-34.695Zm26.13,9.536a.846.846,0,0,0-.1.381.549.549,0,0,1-.191.381q-.763,1.335-1.43,2.623A23.209,23.209,0,0,1-59.9-19.246a11.594,11.594,0,0,1-2.384,2.575,4.52,4.52,0,0,1-4.1.668,5.784,5.784,0,0,0-1.621-.477,8.6,8.6,0,0,1-5.245-3.815A10.91,10.91,0,0,1-74.734-23.2a15.985,15.985,0,0,1-.715-3.195,9.471,9.471,0,0,1-.191-1.86v-1.86a16,16,0,0,1,.191-2.527q.191-1.192.381-2.527.286-1.43.715-2.861t.906-2.861a19.817,19.817,0,0,1,1.192-2.956,13.4,13.4,0,0,1,1.764-2.67q.668-.763,1.43-1.478a6.64,6.64,0,0,1,1.812-1.192,4.27,4.27,0,0,1,3.528,0,6.73,6.73,0,0,1,1.1.477q.524.286,1.1.668a1.5,1.5,0,0,1,.381.286l.477.477-.429.143a1.057,1.057,0,0,1-.334.048H-62.1a1.864,1.864,0,0,0-.381-.143.843.843,0,0,1-.381-.238,5.238,5.238,0,0,0-2,1.907,13.7,13.7,0,0,0-1.287,2.146q-.524,1.1-1,2.241a24.115,24.115,0,0,0-1.1,3.338q-.429,1.717-.811,3.528l-.572,4.005q-.1,1.049-.1,2.146v2.146a28.968,28.968,0,0,0,.334,2.956,13.8,13.8,0,0,0,.811,2.861,6.108,6.108,0,0,0,.524,1q.334.525.62,1a5.232,5.232,0,0,0,1.764-.62,17.372,17.372,0,0,0,1.478-1,16.267,16.267,0,0,0,2.479-2.67,36.147,36.147,0,0,0,2-3.052q.954-1.621,1.907-3.147t1.812-3.147q.477-.954.858-1.955t.858-2.05a7.943,7.943,0,0,0,.334-.763q.143-.381.334-.858a2.239,2.239,0,0,1,.477-.763,6.225,6.225,0,0,0,.572-.668,2.615,2.615,0,0,0,.334.143,2.617,2.617,0,0,1,.334.143.516.516,0,0,1,.238.191,1.357,1.357,0,0,0,.238.286,1.361,1.361,0,0,1-.048.811q-.143.334-.334.715-.477,1.144-.906,2.336t-.906,2.336q-.286.763-.62,1.526t-.715,1.526a.275.275,0,0,0-.1.191.732.732,0,0,1-.1.286q-.191,0-.191.477v-.1q-.191.1-.191.477-.381.286,0,.477l-.191.572a.869.869,0,0,1-.477.477.275.275,0,0,1-.1-.191.275.275,0,0,0-.1.191,2.207,2.207,0,0,0-.286.477Q-56.948-25.349-56.662-25.158Zm-14.018-4.1h-.1v3.242h.1Zm.191-2.193h-.1v.572h.1ZM-70.3-32.6h.1a.552.552,0,0,0-.1-.381h-.1a.377.377,0,0,0,.048.238A.194.194,0,0,1-70.3-32.6Zm13.923,6.58a.275.275,0,0,1,.1-.191.275.275,0,0,0,.1.191v.286q0,.1-.286.191h.1Zm1.049-1.526q0,.381-.191.477v-.477Zm.191-.477q0,.477-.191.477v-.381h.191Zm0-.381.191.191-.191.191V-28.4Zm-1.335,2.861q0,.381-.191.381v-.381h.191ZM-47.7-47.473h1.24l.668.334a5.333,5.333,0,0,1,.572.334q.286.191.477.334a3.58,3.58,0,0,1,.381.334q.286.191.525.334a2.635,2.635,0,0,0,.524.238,4.76,4.76,0,0,1,1.621,1.049q.668.668,1.335,1.43a21.343,21.343,0,0,1,2.575,4.2q.286.858.62,1.669a10.168,10.168,0,0,1,.525,1.669q.191,1.049.334,2a4.049,4.049,0,0,1-.238,2,.339.339,0,0,0-.048.286.664.664,0,0,1,.048.286,9,9,0,0,1-.191,1.86q-.191.906-.381,1.86a8.844,8.844,0,0,1-.763,2.956,9.882,9.882,0,0,1-2.289,3.815,7.334,7.334,0,0,1-1.621,1.24,3.447,3.447,0,0,1-2,.381.754.754,0,0,1-.477-.1q-.668-.191-1.287-.381t-1.287-.381a7.887,7.887,0,0,1-4.577-3.242,12.5,12.5,0,0,1-1.812-4.482,19.251,19.251,0,0,1-.286-5.722q.191-1.43.286-2.909a15.013,15.013,0,0,1,.477-2.909,21.955,21.955,0,0,1,1-3.29,13.334,13.334,0,0,1,1.669-3A7.987,7.987,0,0,1-47.7-47.473Zm2.956,2.67q-.191.381-.334.62a2.636,2.636,0,0,0-.238.524q-.286,1.049-.62,2.05a14.909,14.909,0,0,0-.525,2.05,18,18,0,0,0-.525,2.909q-.143,1.478-.238,3-.1,1.621-.1,3.242a27.727,27.727,0,0,0,.191,3.242q.191,1.049.381,1.955t.381,1.955q.191.477.334.954a1.32,1.32,0,0,0,.62.763q.477-.191,1.24-.572a4.923,4.923,0,0,0,1.669-1.43,11.069,11.069,0,0,0,1.1-1.907,14.436,14.436,0,0,0,1.192-3.767,22.918,22.918,0,0,0,.334-3.862,17.35,17.35,0,0,0-.477-3.815,8.306,8.306,0,0,0-.572-2.1,19.867,19.867,0,0,0-1.049-2q-.572-.954-1.144-2a9.1,9.1,0,0,0-.62-.906A4.807,4.807,0,0,0-44.742-44.8Zm-3.528,11.92h.1v-1.43h-.1Zm.191-2.861h.1v-.763h-.1Zm10.967,5.913h.1V-30.4h-.1Zm-.1.954H-37.4a1.328,1.328,0,0,0,.1.572h.1Zm-.381,1.621h.1v-.381h-.1Zm-10.3-10.2h.1v-.381h-.1Zm26.8,11.444q.381.1.286.286a.405.405,0,0,0,0,.381q-.381.1-.286.286a.405.405,0,0,1,0,.381h.1q-.381.1-.286.286a.405.405,0,0,1,0,.381q-.286.191,0,.477v-.477h.191a1.74,1.74,0,0,1-.048.906q-.143.429-.334.906-.381,1.049-.763,2.05t-.858,2.05a2.867,2.867,0,0,1-1.717,1.43,4.341,4.341,0,0,1-1.717-.524,2.636,2.636,0,0,0-1.812-.238,1.2,1.2,0,0,0-.715-.477,2.282,2.282,0,0,1-.906-.477,6.9,6.9,0,0,1-1.24-1.669,9.613,9.613,0,0,1-.763-1.955q-.286-1.24-.477-2.432t-.286-2.527q0-.858-.048-1.717t-.048-1.717v-2.479a16.284,16.284,0,0,1,.191-2.479q.286-2,.525-4.005a31.417,31.417,0,0,1,.715-3.91q.286-1.24.62-2.432a15.521,15.521,0,0,1,.811-2.241,5.331,5.331,0,0,0,.334-.572A.748.748,0,0,1-29.1-48.9a4.612,4.612,0,0,1,1.812.715,8.76,8.76,0,0,0,1.717.906,4.645,4.645,0,0,1,.381,1.907q-.1,1.335-.1,2.527a15.979,15.979,0,0,1-.191,2.432,7.458,7.458,0,0,0-.143,1.86,12.219,12.219,0,0,1-.048,1.86,37.5,37.5,0,0,0-.191,5.34q.1,2.67,0,5.436a17.757,17.757,0,0,0,.1,1.86q.1.906.191,1.86a20.347,20.347,0,0,0,2.861-4.959q.477-1.144,1-2.289t1.1-2.289q.858-1.907,1.717-3.767t1.812-3.672q.858-1.717,1.812-3.338t2.1-3.242q.668-.763,1.335-1.574a4.7,4.7,0,0,1,1.717-1.287,5.682,5.682,0,0,0,.763-.572,2.065,2.065,0,0,1,1.907-.572l1.717.858A4.011,4.011,0,0,1-4.26-47.712a7.549,7.549,0,0,1,.906,1.669,9.142,9.142,0,0,1,.477,2.909q0,1.478-.1,3-.1,1.049-.238,2.05t-.334,2.05a1.018,1.018,0,0,0-.048.524,3.27,3.27,0,0,1,.048.62q.763-1.144,1.526-2.241t1.526-2.146q.763-1.144,1.621-2.241t1.717-2.146a19.466,19.466,0,0,1,2.1-2.289q.572-.477,1.192-.906t1.287-.906a2.785,2.785,0,0,1,1.717-.525,4.1,4.1,0,0,1,1.621.429q.858.477,1.717.858a13.067,13.067,0,0,1,1.621.858,2.749,2.749,0,0,1,1.049,1.049,7.171,7.171,0,0,1,.477,1.24,7.271,7.271,0,0,1,.191,3.338,18.969,18.969,0,0,1-.286,2q-.191.954-.381,2l-.954,3.815-.954,3.815a40.306,40.306,0,0,0-.858,4.959q-.191,1.049-.429,2t-.429,1.907q-.1.477-.143.858a6.969,6.969,0,0,0-.048.858l-.286,3.147q-.191,1.621-.238,3.147t.048,3.147v.477a1.469,1.469,0,0,1,.238.572,2.437,2.437,0,0,0,.238.668,2.207,2.207,0,0,0-.477.286q-.763-.191-1.383-.381T8.185-7.611a2.45,2.45,0,0,1-2-1.812,7.476,7.476,0,0,1-.572-2.193q-.191-.954-.286-1.86t-.191-1.86q-.191-1.526-.286-3t-.1-3q-.1-.477-.143-.811a5.85,5.85,0,0,1-.048-.811,10.524,10.524,0,0,1,.048-2.241q.143-1.1.334-2.241a19.288,19.288,0,0,1,.381-2.67l.572-2.67q.381-1.526.858-2.956L7.708-38.6q.286-1.144.62-2.241t.715-2.241q.1-.477.143-.906t.143-1a9.275,9.275,0,0,1-.858.62,3.747,3.747,0,0,0-.668.524q-.572.668-1.144,1.287t-1.24,1.287a16.675,16.675,0,0,0-1.573,2.05q-.715,1.1-1.478,2.146a60.261,60.261,0,0,0-3.433,6.056A43.621,43.621,0,0,0-3.64-24.491a10.009,10.009,0,0,0-.286,1.335,14.211,14.211,0,0,1-.286,1.43l-.286,1.43a5.8,5.8,0,0,0-.858.668,2.046,2.046,0,0,0-.477-.381,3.985,3.985,0,0,0-.668.191.836.836,0,0,1-.1-.238.837.837,0,0,0-.1-.238H-7.55l-.381-.381a8.642,8.642,0,0,1-1.526-.1l-1.144-.572a2.278,2.278,0,0,1-1-1.144,4.222,4.222,0,0,1-.238-1.43q0-1.049-.048-1.955a12.219,12.219,0,0,1,.048-1.86q.1-.763.143-1.526a8.455,8.455,0,0,1,.238-1.526q.1-.954.286-1.907l.381-1.907q.286-1.144.572-2.241t.477-2.241l.954-3.242a19.587,19.587,0,0,0,.668-3.242q.1-.477.191-.811t.191-.811v-.62q0-.334-.477-.524-.668.668-1.287,1.24A9.862,9.862,0,0,0-10.7-45.757a17.885,17.885,0,0,0-2.193,2.909q-.954,1.573-2,3.195-.286.477-.572,1.049l-.572,1.144q-.954,1.717-1.812,3.433l-1.717,3.433a15.7,15.7,0,0,0-1.144,2.766,3.486,3.486,0,0,0-.238.906,8.211,8.211,0,0,0-.048.906q-.286.1-.1.572ZM-27.1-27.542h.1v-4.291h-.1Zm.286-9.727a9.486,9.486,0,0,0-.143,1,2.138,2.138,0,0,0,.143,1Zm41.579-4.673h-.191v1.717h.191ZM10-15.813h.1v-1.144H10ZM-3.926-40.893h.1v-1.24h-.1Zm14.3,21.266h-.1v1.049h.1Zm-37.1-19.359h.1v-.954h-.1Zm37.859,14.4h.1v-.668h-.1Zm.191-1.24h.191a1.568,1.568,0,0,0-.048-.381,1.568,1.568,0,0,1-.048-.381h-.1ZM-26.337-42.133h-.1v.763h.1ZM10.474-20.39h.1v-.763h-.1Zm.286-2.289h-.1v.763h.1Zm.191-.572h.1v-.763h-.1Zm-37.1-21.075h-.1v.858h.1Zm21.934,5.15h.191a.754.754,0,0,0-.1-.477h-.1Zm18.691-.381h-.1v.668h.1ZM-4.594-36.125h.1V-36.7h-.1Zm-.191,1.335h.1v-.572h-.1Zm-.286,1.24h.191a.423.423,0,0,0-.048-.191.664.664,0,0,1-.048-.286h-.1Zm16.593,6.389h.1v-.572h-.1Zm.668-3.052.191-.1-.191-.381Zm-.1.572H12v.286h.1Zm-.286,1.43h.1v-.381h-.191a.377.377,0,0,0,.048.238A.194.194,0,0,1,11.809-28.21Zm-33.282,3.242h.191v-.381h-.1A.552.552,0,0,0-21.473-24.968ZM-4.4-37.651h.1v-.286h-.1Zm-22.506,14.4h.1v-.286h-.1Zm5.245.286h.1v-.381h-.1ZM14.193-38.032l.1-.1v-.286h-.1Zm-35,12.683h.191a.405.405,0,0,0,0,.381q.1.191-.191.286Zm0,.668a.405.405,0,0,0,0,.381q.1.191-.286.286h.1v-.668h.191Zm.191-.668v-.477Q-20.233-25.444-20.615-25.349Zm54.453-13.16a.513.513,0,0,1-.143.572,1.022,1.022,0,0,0-.334.572H32.98a11.391,11.391,0,0,0-.715,1,11.391,11.391,0,0,1-.715,1q-.668.763-1.287,1.526t-1.287,1.526a7.161,7.161,0,0,0-.668.763,3.321,3.321,0,0,1-.668.668,2.053,2.053,0,0,1-.525.524q-.334.238-.715.524a13.469,13.469,0,0,1-.1,1.574,6.513,6.513,0,0,0,0,1.574q.1,1.144.143,2.289a7.264,7.264,0,0,0,.429,2.193,3.7,3.7,0,0,1,.191.477,3.7,3.7,0,0,0,.191.477,13.5,13.5,0,0,0,3.481-1.383,30.693,30.693,0,0,0,3.1-2.05q2-1.907,3.767-3.719a11.42,11.42,0,0,0,2.623-4.291l.191-.381a.732.732,0,0,0,.286.1.732.732,0,0,1,.286.1,3.7,3.7,0,0,1,.191.477l.191.572.143-.286.143-.286a5.85,5.85,0,0,0,.048.811,4.4,4.4,0,0,1,.048.62h.1a1.057,1.057,0,0,1,.048-.334q.048-.143.143-.525a4.243,4.243,0,0,1,.1.811,2.957,2.957,0,0,0,.1.715h.1a2.679,2.679,0,0,1,.048-.525,2.679,2.679,0,0,0,.048-.524,3.6,3.6,0,0,1,.143,1.192,5.374,5.374,0,0,1-.334,1.192,17.013,17.013,0,0,1-3.1,4.148,43.5,43.5,0,0,1-3.767,3.385q-1.335,1.049-2.956,2.1a8.777,8.777,0,0,1-1.192.668,4.66,4.66,0,0,1-1.383.381l-.381.191q-1.144-.381-2.336-.668t-2.432-.668a5.77,5.77,0,0,1-3.433-2.956,12.075,12.075,0,0,1-1.144-3.719,20.125,20.125,0,0,1-.1-6.485A26.676,26.676,0,0,1,23.634-43.85a16.268,16.268,0,0,1,1-1.43,16.268,16.268,0,0,0,1-1.43,4.168,4.168,0,0,1,.858-.954,11.611,11.611,0,0,0,.954-.858,4.7,4.7,0,0,1,5.913-.572,6.562,6.562,0,0,1,.811.381,6.973,6.973,0,0,1,.715.477,3.588,3.588,0,0,1,1.144,1.049,2.07,2.07,0,0,1,.381.763,6.416,6.416,0,0,1-.1,2.479,16.1,16.1,0,0,1-.763,2.289,11.251,11.251,0,0,1-.62,1.383q-.334.62-.62,1.287-.191,0-.191.1l-.1-.191a.275.275,0,0,0-.1.191q-.572.191,0,.477Zm.954-2.1q-.572,0,0,.381v-.381q.286-.191,0-.477ZM32.884-46.9l-.381.381-.381.381q-.477.763-1,1.526t-1,1.621a34.789,34.789,0,0,0-1.955,4.482,33.884,33.884,0,0,0-1.287,4.673,2.21,2.21,0,0,0,.048.429,2.68,2.68,0,0,1,.048.524q.477-.572.811-1.049t.715-.954a23.726,23.726,0,0,0,2.146-3.338,37.969,37.969,0,0,0,1.669-3.624,10.212,10.212,0,0,0,.668-2.384A7.647,7.647,0,0,0,32.884-46.9ZM25.255-25.635v0ZM36.031-44.9h-.191a1.057,1.057,0,0,0,.048.334,1.057,1.057,0,0,1,.048.334h.1ZM25.446-31.357h.1v-.668h-.1Zm.286-2h-.1v.477h.1ZM35.745-43.468h-.1a.423.423,0,0,0,.048.191.423.423,0,0,1,.048.191h.1A.552.552,0,0,0,35.745-43.468Zm-.477,1.717.1-.1v-.286h-.1Zm.286-1.049a.084.084,0,0,0-.1.1v.286h.1Zm-1.621,3.91a.275.275,0,0,1,.1-.191.275.275,0,0,0,.1.191v.238q0,.143-.286.143l.1.1Zm32.106-16.5a1.93,1.93,0,0,0-.752.1.65.65,0,0,0-.282.048.65.65,0,0,1-.282.048,12.415,12.415,0,0,1-1.562.1,6.458,6.458,0,0,0-1.572.191l-2.289.191-2.289.191q-1.24.191-2.432.286t-2.527.191q-.572,0-1.1.048t-1.1.143h-.954a2.551,2.551,0,0,1-.954-.191,7.247,7.247,0,0,0-1.192-.286,2.439,2.439,0,0,1-1.192-.572v-.572a.389.389,0,0,1,.286-.1,34.1,34.1,0,0,1,5.626-1.335q1.049-.191,2.05-.429t2.05-.429a8.542,8.542,0,0,1,1.574-.238,8.541,8.541,0,0,0,1.574-.238q1.24-.191,2.432-.381t2.432-.477a5.249,5.249,0,0,1,1.037-.1,2.734,2.734,0,0,0,1.036-.191,3.073,3.073,0,0,0,.942-.191q.282-1.812.564-3.528a33.57,33.57,0,0,1,.753-3.433q.188-.858.423-1.764t.519-1.86q.188-.954.752-1.144a.976.976,0,0,1,.989.334,2.867,2.867,0,0,0,.8.715,1.634,1.634,0,0,1,.715.858,7.948,7.948,0,0,1,.238,1.144,11.451,11.451,0,0,1,.191,2.05q0,1-.1,2.05,0,.763-.048,1.43t-.143,1.43v.858a6.95,6.95,0,0,1,1.144-.1,5.358,5.358,0,0,0,1.049-.1,7.53,7.53,0,0,1,1.144-.286l1.144-.191a12.68,12.68,0,0,1,1.573-.1,12.676,12.676,0,0,0,1.574-.1q1.335-.1,2.527-.143t2.527-.143a5.733,5.733,0,0,0,.954-.191l1.907.954q.954.477,2,.954a.855.855,0,0,1-.572.572,16,16,0,0,0-1.955.477q-.906.286-1.86.572a17.011,17.011,0,0,1-2.623.715q-1.287.238-2.623.429-.954.191-1.907.286t-2,.286a3.745,3.745,0,0,1-1.192.191,9.106,9.106,0,0,0-1.287.1,6.97,6.97,0,0,0-.858.048q-.381.048-.858.143a1.673,1.673,0,0,0-.191.477v1.43a4.84,4.84,0,0,1-.191,1.335,8.747,8.747,0,0,0-.143,2,7.723,7.723,0,0,1-.143,1.907,4.977,4.977,0,0,0-.143,1.526,3.656,3.656,0,0,1-.238,1.526v.286l-.286,3.433a6.144,6.144,0,0,1-.048.763q-.048.381-.143.858v.715a1.608,1.608,0,0,1-.191.715v.191q-.1,1.049-.143,2t-.143,1.907q0,.477-.048.954t-.143.954v.954a2.551,2.551,0,0,1-.191.954v.286q-.1,1.049-.1,2.05a11.45,11.45,0,0,1-.191,2.05,6.417,6.417,0,0,0-.1,1.907,7.177,7.177,0,0,1-.1,2,31.689,31.689,0,0,0-.143,3.91q.048,2-.048,4.005a5.6,5.6,0,0,0,.1,1,5.6,5.6,0,0,1,.1,1,4.852,4.852,0,0,1,.1.954,4.852,4.852,0,0,0,.1.954,8.541,8.541,0,0,1,.238,1.574A8.541,8.541,0,0,0,69.885-7.9l.381,1.526a2.829,2.829,0,0,0,.763,1.335v.477a1.529,1.529,0,0,0-.376.048.524.524,0,0,1-.376-.048A3.451,3.451,0,0,0,69.43-4.8a3.451,3.451,0,0,1-.847-.238,2.294,2.294,0,0,1-1.788-1.335,12.338,12.338,0,0,1-.942-3.052q-.282-1.526-.564-2.956t-.565-2.956q-.188-1.24-.423-2.432t-.423-2.527v-.191q-.1-1.717-.191-3.385a30.068,30.068,0,0,1,0-3.385q0-1.049-.048-2a14.266,14.266,0,0,1,.048-2,12.5,12.5,0,0,0,.141-2.384,12.419,12.419,0,0,1,.142-2.384,7.451,7.451,0,0,0,.047-1.43,3.89,3.89,0,0,1,.141-1.335,7.8,7.8,0,0,0,.188-1.669,7.741,7.741,0,0,1,.189-1.669,3.7,3.7,0,0,0,.141-1.287,5.986,5.986,0,0,1,.047-1.287l.283-2.861.565-4.291q.094-.572.141-1.192t.141-1.287a2.244,2.244,0,0,1,.047-.429Q65.946-55.007,66.04-55.389Zm5.848-14.018h-.1v3.242h.1Zm-3.624,45.87h.1v-1.526h-.1Zm.477-7.724a1.719,1.719,0,0,0,0,1.144Zm.381-4.482h.1v-1.049h-.1Zm.191-2.479h.1v-.954h-.1Zm1.43-14.5h-.1v.954h.1ZM69.6-41.656h-.1v1.049h.1ZM68.55-28.21h-.088l-.007.954h.1Zm.286-4.768a1.37,1.37,0,0,0,0-1.24Zm.858-10.109a.275.275,0,0,0,.191.1v-.763h-.1A1.637,1.637,0,0,0,69.695-43.087Zm.381-2.861h-.1v.763h.1Zm.191-2.193h-.1v.763h.1Zm.191-1.43v0ZM71.03-55.1h-.191v.763h.1A2.481,2.481,0,0,1,71.03-55.1Zm.572-8.106h-.1v.477h.1Zm-3.242,47.4h-.1v.381h.1ZM79.517-47.473h1.24l.668.334a5.332,5.332,0,0,1,.572.334q.286.191.477.334a3.58,3.58,0,0,1,.381.334q.286.191.524.334a2.636,2.636,0,0,0,.525.238,4.76,4.76,0,0,1,1.621,1.049q.668.668,1.335,1.43a21.344,21.344,0,0,1,2.575,4.2q.286.858.62,1.669a10.167,10.167,0,0,1,.525,1.669q.191,1.049.334,2a4.049,4.049,0,0,1-.238,2,.339.339,0,0,0-.048.286.664.664,0,0,1,.048.286,9,9,0,0,1-.191,1.86q-.191.906-.381,1.86A8.844,8.844,0,0,1,89.34-24.3a9.882,9.882,0,0,1-2.289,3.815,7.334,7.334,0,0,1-1.621,1.24,3.447,3.447,0,0,1-2,.381.754.754,0,0,1-.477-.1q-.668-.191-1.287-.381t-1.287-.381A7.887,7.887,0,0,1,75.8-22.965a12.5,12.5,0,0,1-1.812-4.482,19.251,19.251,0,0,1-.286-5.722q.191-1.43.286-2.909a15.012,15.012,0,0,1,.477-2.909,21.956,21.956,0,0,1,1-3.29,13.334,13.334,0,0,1,1.669-3A7.987,7.987,0,0,1,79.517-47.473Zm2.956,2.67q-.191.381-.334.62a2.635,2.635,0,0,0-.238.524q-.286,1.049-.62,2.05a14.909,14.909,0,0,0-.524,2.05,18,18,0,0,0-.524,2.909q-.143,1.478-.238,3-.1,1.621-.1,3.242a27.727,27.727,0,0,0,.191,3.242q.191,1.049.381,1.955t.381,1.955q.191.477.334.954a1.32,1.32,0,0,0,.62.763q.477-.191,1.24-.572a4.923,4.923,0,0,0,1.669-1.43,11.069,11.069,0,0,0,1.1-1.907A14.436,14.436,0,0,0,87-29.211a22.917,22.917,0,0,0,.334-3.862,17.351,17.351,0,0,0-.477-3.815,8.307,8.307,0,0,0-.572-2.1,19.867,19.867,0,0,0-1.049-2q-.572-.954-1.144-2a9.1,9.1,0,0,0-.62-.906A4.807,4.807,0,0,0,82.473-44.8Zm-3.528,11.92h.1v-1.43h-.1Zm.191-2.861h.1v-.763h-.1ZM90.1-29.831h.1V-30.4h-.1Zm-.1.954h-.191a1.328,1.328,0,0,0,.1.572h.1Zm-.381,1.621h.1v-.381h-.1Zm-10.3-10.2h.1v-.381h-.1Z"
        transform="translate(153.198 76.464)" />
</svg>
